<?xml version="1.0" encoding="UTF-8"?>
<svg width="150px" id="Layer_2" data-name="Layer 2" xmlns="http://www.w3.org/2000/svg" viewBox="0 0 150 100">
  <defs>
    <style>
      .cls-1 {
        fill: #004c8c;
      }

      .cls-2 {
        fill: #004b8c;
      }

      .cls-3 {
        fill: #fdba31;
      }

      .cls-4 {
        fill: #4ab9ff;
        opacity: .65;
      }
    </style>
  </defs>
  <g id="Layer_2-2" data-name="Layer 2">
    <rect class="cls-4" width="150" height="100"/>
    <path class="cls-2" d="M101.5,83.4h17.67c0,5.13-4.17,9.3-9.3,9.3h0c-4.62,0-8.37-3.75-8.37-8.37v-.93h0Z"/>
    <rect class="cls-3" x="103.62" y="43.03" width="11.92" height="4.49"/>
    <rect class="cls-2" x="125.17" y="35.64" width="3.44" height="10.09"/>
    <path class="cls-3" d="M44.86,35.07l.1,11.26h-4.42l-.1,19.13c0,5.31-2.34,7.22-6.05,7.22s-6.05-1.91-6.05-7.22V25.31c0-5.31,2.34-7.33,6.05-7.33s6.05,2.02,6.05,7.33v9.76h4.42Z"/>
    <rect class="cls-3" x="42.84" y="36.87" width="59.63" height="7.6"/>
    <path class="cls-2" d="M133.28,33.15c-.34-.89-.37-1.77-.37-2.94v-3.97c0-2.69-.67-4.6-2.73-5.44v-.07c1.83-.85,2.69-2.54,2.69-5.18v-2.02c0-3.97-1.83-5.92-6.09-5.92h-6.2v25.56h-2.99V7.59h-4.1v25.56h-1.94l-4.15-25.56h-6.01l-4.15,25.56h-4.66c2.21-.88,3.35-2.96,3.35-5.99s-1.08-5.07-4.52-8.05c-2.69-2.32-3.51-3.71-3.51-5.59s.75-2.54,2.05-2.54,2.05,.7,2.05,2.54v1.06h3.88v-.81c0-4.12-2.05-6.47-6.05-6.47s-6.05,2.35-6.05,6.47c0,2.94,1.08,5.07,4.52,8.05,2.69,2.32,3.51,3.71,3.51,5.59s-.82,2.5-2.13,2.5-2.13-.66-2.13-2.5v-1.84h-3.88v1.58c0,3.04,1.14,5.11,3.35,5.99h-5.04c-.34-.89-.37-1.77-.37-2.94v-3.97c0-2.69-.67-4.6-2.72-5.44v-.07c1.83-.85,2.69-2.54,2.69-5.18v-2.02c0-3.97-1.83-5.92-6.09-5.92h-6.2v25.56h-6.11c2.25-.88,3.44-2.96,3.44-5.99V13.77c0-4.12-2.2-6.47-6.23-6.47s-6.24,2.35-6.24,6.47v13.39c0,3.04,1.2,5.11,3.45,5.99h-4.4c-.95,0-1.72-.77-1.72-1.72v-5.37c0-11.9-5.95-18.69-17.42-18.69s-17.42,6.8-17.42,18.69v38.66c0,11.89,5.95,18.69,17.42,18.69s17.42-6.8,17.42-18.69v-9.79h0v-4.96c0-.98,.8-1.78,1.78-1.78h3.66l-5.46,35.21h4.93l.93-6.39h6.59l.93,6.39h5.42l-5.46-35.21h7.96v35.21h5.37v-14.34h1.86c2.44,0,3.51,1.21,3.51,4.48v5.54c0,2.87,.19,3.42,.49,4.33h5.47c-.54-1.31-.59-2.57-.59-4.28v-5.43c0-3.68-.88-6.29-3.56-7.45v-.1c2.39-1.16,3.51-3.47,3.51-7.1v-2.77c0-5.2-2.19-7.87-7.24-8.09h8.99c1.01,0,1.82,.82,1.82,1.82v33.39h14.64s21.12,0,21.12,0v-30.21h5.23v-19.85c-.03-.06-.05-.12-.08-.18Zm-8.59-21.88h1.98c1.46,0,2.09,.81,2.09,2.65v2.54c0,2.06-.93,2.72-2.46,2.72h-1.61v-7.91Zm-20.55,.88h.08l1.94,13.02h-3.96l1.94-13.02Zm-2.46,16.51h5.04l.68,4.49h-6.4l.68-4.49Zm-28.28-17.4h1.98c1.46,0,2.09,.81,2.09,2.65v2.54c0,2.06-.93,2.72-2.46,2.72h-1.61v-7.91Zm0,11.58h1.42c1.87,0,2.69,.88,2.69,3.27v4.04c0,1.89,.12,2.41,.31,2.98h-4.42v-10.3Zm-15.13-9.34c0-1.84,.82-2.54,2.13-2.54s2.13,.7,2.13,2.54v13.9c0,1.84-.82,2.54-2.13,2.54s-2.13-.7-2.13-2.54V13.51Zm-.27,58.72l2.53-17.82h.1l2.53,17.82h-5.17Zm25.43-15.4v3.47c0,2.82-1.22,3.72-3.22,3.72h-2.1v-10.82h2.59c1.9,0,2.73,1.11,2.73,3.62Zm44.69-12.36h-13.54c-.93,0-1.68,.75-1.68,1.68v7.05h.14s9.56,0,9.56,0v6.59h-7.68v11.46h7.68v7.1h-9.25v.47c0,.5-.11,.97-.31,1.39-.11,.24-.24,.45-.4,.65-.61,.78-1.56,1.29-2.63,1.29-.92,0-1.75-.37-2.36-.98-.1-.1-.19-.2-.27-.31-.15-.18-.27-.38-.37-.6-.21-.44-.33-.93-.33-1.45v-.46h-8.94v-7.1h7.37v-11.46h-7.37v-6.6h9.27v-5.03h-.02v-2.02c0-.93-.75-1.68-1.68-1.68H42.16c-.95,0-1.72,.77-1.72,1.72v19.26c0,5.31-2.34,7.22-6.05,7.22s-6.05-1.91-6.05-7.22V25.31c0-5.31,2.34-7.33,6.05-7.33s6.05,2.02,6.05,7.33v9.76c0,.99,.81,1.8,1.8,1.8h85.89v7.6Zm-3.44-11.32v-10.3h1.42c1.87,0,2.69,.88,2.69,3.27v4.04c0,1.89,.12,2.41,.31,2.98h-4.42Z"/>
    <path class="cls-3" d="M129.11,40.2v.73c0,1.95-1.61,3.53-3.59,3.53h-12.63v1.86h-5.28v-1.86h-36.5v-7.6h54.61c1.87,0,3.39,1.49,3.39,3.33Z"/>
    <path class="cls-3" d="M112.9,53.21h.14s9.56,0,9.56,0v6.59h-7.68v11.46h7.68v7.1h-9.25v.47c0,.5-.11,.97-.31,1.39-.11,.24-.24,.45-.4,.65h-5.26c-.15-.18-.27-.38-.37-.6-.21-.44-.33-.93-.33-1.45v-.46h-8.94v-7.1h7.37v-11.46h-7.37v-6.6h9.27v-5.03h-.02v-3.7h-9.66v-7.6h28.32v7.6h-12.75v8.74Z"/>
    <path class="cls-1" d="M106.68,78.37v.46c0,.52,.12,1.01,.33,1.45v-1.91h-.33Z"/>
    <path class="cls-1" d="M113.03,78.36v1.86c.2-.42,.31-.9,.31-1.39v-.47h-.31Z"/>
    <path class="cls-1" d="M113.03,78.37v1.86c-.11,.24-.24,.45-.4,.65-.61,.78-1.56,1.29-2.63,1.29-.92,0-1.75-.37-2.36-.98-.1-.1-.19-.2-.27-.31-.15-.18-.27-.38-.37-.6v-1.91h6.03Z"/>
    <path class="cls-3" d="M113.34,78.23v5.31c0,.5-.11,.97-.31,1.39-.11,.24-.24,.45-.4,.65-.61,.78-1.56,1.29-2.63,1.29-.92,0-1.75-.37-2.36-.98-.1-.1-.19-.2-.27-.31-.15-.18-.27-.38-.37-.6-.21-.44-.33-.93-.33-1.45v-5.31c0-1.84,1.49-3.33,3.33-3.33,.92,0,1.75,.37,2.36,.98,.6,.6,.98,1.44,.98,2.36Z"/>
  </g>
</svg>