<?xml version="1.0" encoding="UTF-8"?>
<svg id="Layer_2" data-name="Layer 2" xmlns="http://www.w3.org/2000/svg" viewBox="0 0 359.62 294.23" width="150px">
  <defs>
    <style>
      .cls-1 {
        fill: #fff;
      }

      .cls-2 {
        fill: #ffe996;
      }

      .cls-3 {
        fill: #7d7e81;
      }

      .cls-4 {
        fill: #a09561;
      }

      .cls-5 {
        fill: #da0000;
      }

      .cls-6 {
        fill: #df0000;
      }

      .cls-7 {
        fill: #6e0000;
      }

      .cls-8 {
        fill: #9d0000;
      }

      .cls-9 {
        fill: #4f4f51;
      }
    </style>
  </defs>
  <g id="hashtag">
    <rect x="196.16" y="277.89" width="16.35" height="16.35"/>
    <rect x="179.81" y="277.89" width="16.35" height="16.35"/>
    <rect x="163.46" y="277.89" width="16.35" height="16.35"/>
    <rect x="147.12" y="277.89" width="16.35" height="16.35"/>
    <rect x="212.5" y="261.54" width="16.35" height="16.35"/>
    <rect x="228.85" y="245.2" width="16.35" height="16.35"/>
    <rect x="228.85" y="228.85" width="16.35" height="16.35"/>
    <rect x="228.85" y="212.5" width="16.35" height="16.35"/>
    <rect x="228.85" y="196.16" width="16.35" height="16.35"/>
    <rect x="228.85" y="179.81" width="16.35" height="16.35"/>
    <rect x="228.85" y="163.46" width="16.35" height="16.35"/>
    <rect x="228.85" y="147.12" width="16.35" height="16.35"/>
    <rect x="228.85" y="130.77" width="16.35" height="16.35"/>
    <rect x="179.81" y="261.54" width="16.35" height="16.35"/>
    <rect x="196.16" y="245.2" width="16.35" height="16.35"/>
    <rect x="196.16" y="228.85" width="16.35" height="16.35"/>
    <rect x="196.16" y="212.5" width="16.35" height="16.35"/>
    <rect x="196.16" y="196.16" width="16.35" height="16.35"/>
    <rect x="196.16" y="179.81" width="16.35" height="16.35"/>
    <rect x="196.16" y="163.46" width="16.35" height="16.35"/>
    <rect x="196.16" y="147.12" width="16.35" height="16.35"/>
    <rect x="196.16" y="130.77" width="16.35" height="16.35"/>
    <rect x="228.85" y="114.42" width="16.35" height="16.35"/>
    <rect x="196.16" y="114.42" width="16.35" height="16.35"/>
    <rect x="228.85" y="98.08" width="16.35" height="16.35"/>
    <rect x="196.16" y="98.08" width="16.35" height="16.35"/>
    <rect x="228.85" y="81.73" width="16.35" height="16.35"/>
    <rect x="196.16" y="81.73" width="16.35" height="16.35"/>
    <rect y="228.85" width="16.35" height="16.35"/>
    <rect y="212.5" width="16.35" height="16.35"/>
    <rect y="196.16" width="16.35" height="16.35"/>
    <rect y="179.81" width="16.35" height="16.35"/>
    <rect y="163.46" width="16.35" height="16.35"/>
    <rect y="147.12" width="16.35" height="16.35"/>
    <rect y="130.77" width="16.35" height="16.35"/>
    <rect y="114.42" width="16.35" height="16.35"/>
    <rect y="98.08" width="16.35" height="16.35"/>
    <rect y="81.73" width="16.35" height="16.35"/>
    <rect x="228.85" y="65.39" width="16.35" height="16.35"/>
    <rect x="212.5" y="49.04" width="16.35" height="16.35"/>
    <rect class="cls-3" x="196.16" y="49.04" width="16.35" height="16.35"/>
    <rect class="cls-3" x="212.5" y="65.39" width="16.35" height="16.35"/>
    <rect class="cls-3" x="212.5" y="81.73" width="16.35" height="16.35"/>
    <rect class="cls-3" x="212.5" y="98.08" width="16.35" height="16.35"/>
    <rect class="cls-3" x="212.5" y="114.42" width="16.35" height="16.35"/>
    <rect class="cls-3" x="212.5" y="130.77" width="16.35" height="16.35"/>
    <rect class="cls-3" x="212.5" y="147.12" width="16.35" height="16.35"/>
    <rect class="cls-3" x="212.5" y="163.46" width="16.35" height="16.35"/>
    <rect class="cls-9" x="212.5" y="179.81" width="16.35" height="16.35"/>
    <rect class="cls-9" x="212.5" y="196.16" width="16.35" height="16.35"/>
    <rect class="cls-9" x="212.5" y="212.5" width="16.35" height="16.35"/>
    <rect class="cls-9" x="212.5" y="228.85" width="16.35" height="16.35"/>
    <rect class="cls-3" x="179.81" y="98.08" width="16.35" height="16.35" transform="translate(294.23 -81.73) rotate(90)"/>
    <rect class="cls-3" x="163.46" y="98.08" width="16.35" height="16.35" transform="translate(277.89 -65.39) rotate(90)"/>
    <rect class="cls-3" x="147.12" y="98.08" width="16.35" height="16.35" transform="translate(261.54 -49.04) rotate(90)"/>
    <rect class="cls-3" x="130.77" y="98.08" width="16.35" height="16.35" transform="translate(245.2 -32.69) rotate(90)"/>
    <rect class="cls-3" x="114.42" y="98.08" width="16.35" height="16.35" transform="translate(228.85 -16.35) rotate(90)"/>
    <rect class="cls-3" x="98.08" y="98.08" width="16.35" height="16.35" transform="translate(212.5 0) rotate(90)"/>
    <rect class="cls-3" x="81.73" y="98.08" width="16.35" height="16.35" transform="translate(196.16 16.35) rotate(90)"/>
    <rect class="cls-3" x="65.39" y="98.08" width="16.35" height="16.35" transform="translate(179.81 32.69) rotate(90)"/>
    <rect class="cls-3" x="49.04" y="98.08" width="16.35" height="16.35" transform="translate(163.46 49.04) rotate(90)"/>
    <rect class="cls-3" x="32.69" y="98.08" width="16.35" height="16.35" transform="translate(147.12 65.39) rotate(90)"/>
    <rect class="cls-3" x="16.35" y="98.08" width="16.35" height="16.35" transform="translate(130.77 81.73) rotate(90)"/>
    <rect class="cls-2" x="179.81" y="81.73" width="16.35" height="16.35" transform="translate(277.89 -98.08) rotate(90)"/>
    <rect class="cls-2" x="163.46" y="81.73" width="16.35" height="16.35" transform="translate(261.54 -81.73) rotate(90)"/>
    <rect class="cls-2" x="147.12" y="81.73" width="16.35" height="16.35" transform="translate(245.2 -65.39) rotate(90)"/>
    <rect class="cls-2" x="130.77" y="81.73" width="16.35" height="16.35" transform="translate(228.85 -49.04) rotate(90)"/>
    <rect class="cls-2" x="114.42" y="81.73" width="16.35" height="16.35" transform="translate(212.5 -32.69) rotate(90)"/>
    <rect class="cls-2" x="98.08" y="81.73" width="16.35" height="16.35" transform="translate(196.16 -16.35) rotate(90)"/>
    <rect class="cls-2" x="81.73" y="81.73" width="16.35" height="16.35" transform="translate(179.81 0) rotate(90)"/>
    <rect class="cls-2" x="65.39" y="81.73" width="16.35" height="16.35" transform="translate(163.46 16.35) rotate(90)"/>
    <rect class="cls-2" x="81.73" y="65.39" width="16.35" height="16.35" transform="translate(163.46 -16.35) rotate(90)"/>
    <rect class="cls-2" x="65.39" y="65.39" width="16.35" height="16.35" transform="translate(147.12 0) rotate(90)"/>
    <rect class="cls-2" x="81.73" y="49.04" width="16.35" height="16.35" transform="translate(147.12 -32.69) rotate(90)"/>
    <rect class="cls-2" x="65.39" y="49.04" width="16.35" height="16.35" transform="translate(130.77 -16.35) rotate(90)"/>
    <rect class="cls-2" x="130.77" y="65.39" width="16.35" height="16.35" transform="translate(212.5 -65.39) rotate(90)"/>
    <rect class="cls-2" x="114.42" y="65.39" width="16.35" height="16.35" transform="translate(196.16 -49.04) rotate(90)"/>
    <rect class="cls-2" x="130.77" y="49.04" width="16.35" height="16.35" transform="translate(196.16 -81.73) rotate(90)"/>
    <rect class="cls-2" x="114.42" y="49.04" width="16.35" height="16.35" transform="translate(179.81 -65.39) rotate(90)"/>
    <rect class="cls-2" x="179.81" y="65.39" width="16.35" height="16.35" transform="translate(261.54 -114.42) rotate(90)"/>
    <rect class="cls-2" x="163.46" y="65.39" width="16.35" height="16.35" transform="translate(245.2 -98.08) rotate(90)"/>
    <rect class="cls-2" x="163.46" y="49.04" width="16.35" height="16.35" transform="translate(228.85 -114.42) rotate(90)"/>
    <rect class="cls-2" x="49.04" y="81.73" width="16.35" height="16.35" transform="translate(147.12 32.69) rotate(90)"/>
    <rect class="cls-2" x="32.69" y="81.73" width="16.35" height="16.35" transform="translate(130.77 49.04) rotate(90)"/>
    <rect class="cls-2" x="32.69" y="65.39" width="16.35" height="16.35" transform="translate(114.42 32.69) rotate(90)"/>
    <rect class="cls-2" x="16.35" y="65.39" width="16.35" height="16.35" transform="translate(98.08 49.04) rotate(90)"/>
    <rect class="cls-2" x="32.69" y="49.04" width="16.35" height="16.35" transform="translate(98.08 16.35) rotate(90)"/>
    <rect class="cls-2" x="16.35" y="81.73" width="16.35" height="16.35" transform="translate(114.42 65.39) rotate(90)"/>
    <rect class="cls-2" x="179.81" y="114.42" width="16.35" height="16.35" transform="translate(310.58 -65.39) rotate(90)"/>
    <rect class="cls-2" x="163.46" y="114.42" width="16.35" height="16.35" transform="translate(294.23 -49.04) rotate(90)"/>
    <rect class="cls-2" x="147.12" y="114.42" width="16.35" height="16.35" transform="translate(277.89 -32.69) rotate(90)"/>
    <rect class="cls-2" x="130.77" y="114.42" width="16.35" height="16.35" transform="translate(261.54 -16.35) rotate(90)"/>
    <rect class="cls-2" x="114.42" y="114.42" width="16.35" height="16.35" transform="translate(245.2 0) rotate(90)"/>
    <rect class="cls-2" x="98.08" y="114.42" width="16.35" height="16.35" transform="translate(228.85 16.35) rotate(90)"/>
    <rect class="cls-2" x="81.73" y="114.42" width="16.35" height="16.35" transform="translate(212.5 32.69) rotate(90)"/>
    <rect class="cls-2" x="65.39" y="114.42" width="16.35" height="16.35" transform="translate(196.16 49.04) rotate(90)"/>
    <rect class="cls-2" x="49.04" y="114.42" width="16.35" height="16.35" transform="translate(179.81 65.39) rotate(90)"/>
    <rect class="cls-2" x="32.69" y="114.42" width="16.35" height="16.35" transform="translate(163.46 81.73) rotate(90)"/>
    <rect class="cls-2" x="16.35" y="114.42" width="16.35" height="16.35" transform="translate(147.12 98.08) rotate(90)"/>
    <rect class="cls-2" x="179.81" y="130.77" width="16.35" height="16.35" transform="translate(326.93 -49.04) rotate(90)"/>
    <rect class="cls-2" x="163.46" y="130.77" width="16.35" height="16.35" transform="translate(310.58 -32.69) rotate(90)"/>
    <rect class="cls-2" x="147.12" y="130.77" width="16.35" height="16.35" transform="translate(294.23 -16.35) rotate(90)"/>
    <rect class="cls-2" x="130.77" y="130.77" width="16.35" height="16.35" transform="translate(277.89 0) rotate(90)"/>
    <rect class="cls-2" x="114.42" y="130.77" width="16.35" height="16.35" transform="translate(261.54 16.35) rotate(90)"/>
    <rect class="cls-2" x="98.08" y="130.77" width="16.35" height="16.35" transform="translate(245.2 32.69) rotate(90)"/>
    <rect class="cls-2" x="81.73" y="130.77" width="16.35" height="16.35" transform="translate(228.85 49.04) rotate(90)"/>
    <rect class="cls-2" x="65.39" y="130.77" width="16.35" height="16.35" transform="translate(212.5 65.39) rotate(90)"/>
    <rect class="cls-2" x="49.04" y="130.77" width="16.35" height="16.35" transform="translate(196.16 81.73) rotate(90)"/>
    <rect class="cls-2" x="32.69" y="130.77" width="16.35" height="16.35" transform="translate(179.81 98.08) rotate(90)"/>
    <rect class="cls-2" x="16.35" y="130.77" width="16.35" height="16.35" transform="translate(163.46 114.42) rotate(90)"/>
    <rect class="cls-3" x="179.81" y="147.12" width="16.35" height="16.35" transform="translate(343.27 -32.69) rotate(90)"/>
    <rect class="cls-3" x="163.46" y="147.12" width="16.35" height="16.35" transform="translate(326.93 -16.35) rotate(90)"/>
    <rect class="cls-3" x="147.12" y="147.12" width="16.35" height="16.35" transform="translate(310.58 0) rotate(90)"/>
    <rect class="cls-3" x="130.77" y="147.12" width="16.35" height="16.35" transform="translate(294.23 16.35) rotate(90)"/>
    <rect class="cls-3" x="114.42" y="147.12" width="16.35" height="16.35" transform="translate(277.89 32.69) rotate(90)"/>
    <rect class="cls-3" x="98.08" y="147.12" width="16.35" height="16.35" transform="translate(261.54 49.04) rotate(90)"/>
    <rect class="cls-3" x="81.73" y="147.12" width="16.35" height="16.35" transform="translate(245.2 65.39) rotate(90)"/>
    <rect class="cls-3" x="65.39" y="147.12" width="16.35" height="16.35" transform="translate(228.85 81.73) rotate(90)"/>
    <rect class="cls-3" x="49.04" y="147.12" width="16.35" height="16.35" transform="translate(212.5 98.08) rotate(90)"/>
    <rect class="cls-3" x="32.69" y="147.12" width="16.35" height="16.35" transform="translate(196.16 114.42) rotate(90)"/>
    <rect class="cls-3" x="16.35" y="147.12" width="16.35" height="16.35" transform="translate(179.81 130.77) rotate(90)"/>
    <rect class="cls-2" x="179.81" y="163.46" width="16.35" height="16.35" transform="translate(359.62 -16.35) rotate(90)"/>
    <rect class="cls-2" x="163.46" y="163.46" width="16.35" height="16.35" transform="translate(343.27 0) rotate(90)"/>
    <rect class="cls-2" x="147.12" y="163.46" width="16.35" height="16.35" transform="translate(326.93 16.35) rotate(90)"/>
    <rect class="cls-2" x="130.77" y="163.46" width="16.35" height="16.35" transform="translate(310.58 32.69) rotate(90)"/>
    <rect class="cls-2" x="114.42" y="163.46" width="16.35" height="16.35" transform="translate(294.23 49.04) rotate(90)"/>
    <rect class="cls-2" x="98.08" y="163.46" width="16.35" height="16.35" transform="translate(277.89 65.39) rotate(90)"/>
    <rect class="cls-2" x="81.73" y="163.46" width="16.35" height="16.35" transform="translate(261.54 81.73) rotate(90)"/>
    <rect class="cls-2" x="65.39" y="163.46" width="16.35" height="16.35" transform="translate(245.2 98.08) rotate(90)"/>
    <rect class="cls-2" x="49.04" y="163.46" width="16.35" height="16.35" transform="translate(228.85 114.42) rotate(90)"/>
    <rect class="cls-2" x="32.69" y="163.46" width="16.35" height="16.35" transform="translate(212.5 130.77) rotate(90)"/>
    <rect class="cls-2" x="16.35" y="163.46" width="16.35" height="16.35" transform="translate(196.16 147.12) rotate(90)"/>
    <rect class="cls-2" x="179.81" y="179.81" width="16.35" height="16.35" transform="translate(375.97 0) rotate(90)"/>
    <rect class="cls-2" x="163.46" y="179.81" width="16.35" height="16.35" transform="translate(359.62 16.35) rotate(90)"/>
    <rect class="cls-2" x="147.12" y="179.81" width="16.35" height="16.35" transform="translate(343.27 32.69) rotate(90)"/>
    <rect class="cls-2" x="130.77" y="179.81" width="16.35" height="16.35" transform="translate(326.93 49.04) rotate(90)"/>
    <rect class="cls-2" x="114.42" y="179.81" width="16.35" height="16.35" transform="translate(310.58 65.39) rotate(90)"/>
    <rect class="cls-2" x="98.08" y="179.81" width="16.35" height="16.35" transform="translate(294.23 81.73) rotate(90)"/>
    <rect class="cls-2" x="81.73" y="179.81" width="16.35" height="16.35" transform="translate(277.89 98.08) rotate(90)"/>
    <rect class="cls-2" x="65.39" y="179.81" width="16.35" height="16.35" transform="translate(261.54 114.42) rotate(90)"/>
    <rect class="cls-2" x="49.04" y="179.81" width="16.35" height="16.35" transform="translate(245.2 130.77) rotate(90)"/>
    <rect class="cls-2" x="32.69" y="179.81" width="16.35" height="16.35" transform="translate(228.85 147.12) rotate(90)"/>
    <rect class="cls-2" x="16.35" y="179.81" width="16.35" height="16.35" transform="translate(212.5 163.46) rotate(90)"/>
    <rect class="cls-3" x="179.81" y="196.16" width="16.35" height="16.35" transform="translate(392.31 16.35) rotate(90)"/>
    <rect class="cls-3" x="163.46" y="196.16" width="16.35" height="16.35" transform="translate(375.97 32.69) rotate(90)"/>
    <rect class="cls-3" x="147.12" y="196.16" width="16.35" height="16.35" transform="translate(359.62 49.04) rotate(90)"/>
    <rect class="cls-3" x="130.77" y="196.16" width="16.35" height="16.35" transform="translate(343.27 65.39) rotate(90)"/>
    <rect class="cls-3" x="114.42" y="196.16" width="16.35" height="16.35" transform="translate(326.93 81.73) rotate(90)"/>
    <rect class="cls-3" x="98.08" y="196.16" width="16.35" height="16.35" transform="translate(310.58 98.08) rotate(90)"/>
    <rect class="cls-3" x="81.73" y="196.16" width="16.35" height="16.35" transform="translate(294.23 114.42) rotate(90)"/>
    <rect class="cls-3" x="65.39" y="196.16" width="16.35" height="16.35" transform="translate(277.89 130.77) rotate(90)"/>
    <rect class="cls-3" x="49.04" y="196.16" width="16.35" height="16.35" transform="translate(261.54 147.12) rotate(90)"/>
    <rect class="cls-3" x="32.69" y="196.16" width="16.35" height="16.35" transform="translate(245.2 163.46) rotate(90)"/>
    <rect class="cls-3" x="16.35" y="196.16" width="16.35" height="16.35" transform="translate(228.85 179.81) rotate(90)"/>
    <rect class="cls-2" x="179.81" y="212.5" width="16.35" height="16.35" transform="translate(408.66 32.69) rotate(90)"/>
    <rect class="cls-2" x="163.46" y="212.5" width="16.35" height="16.35" transform="translate(392.31 49.04) rotate(90)"/>
    <rect class="cls-2" x="147.12" y="212.5" width="16.35" height="16.35" transform="translate(375.97 65.39) rotate(90)"/>
    <rect class="cls-2" x="130.77" y="212.5" width="16.35" height="16.35" transform="translate(359.62 81.73) rotate(90)"/>
    <rect class="cls-2" x="114.42" y="212.5" width="16.35" height="16.35" transform="translate(343.27 98.08) rotate(90)"/>
    <rect class="cls-2" x="98.08" y="212.5" width="16.35" height="16.35" transform="translate(326.93 114.42) rotate(90)"/>
    <rect class="cls-2" x="81.73" y="212.5" width="16.35" height="16.35" transform="translate(310.58 130.77) rotate(90)"/>
    <rect class="cls-2" x="65.39" y="212.5" width="16.35" height="16.35" transform="translate(294.23 147.12) rotate(90)"/>
    <rect class="cls-2" x="49.04" y="212.5" width="16.35" height="16.35" transform="translate(277.89 163.46) rotate(90)"/>
    <rect class="cls-2" x="32.69" y="212.5" width="16.35" height="16.35" transform="translate(261.54 179.81) rotate(90)"/>
    <rect class="cls-2" x="16.35" y="212.5" width="16.35" height="16.35" transform="translate(245.2 196.16) rotate(90)"/>
    <rect class="cls-4" x="179.81" y="228.85" width="16.35" height="16.35" transform="translate(425.01 49.04) rotate(90)"/>
    <rect class="cls-2" x="163.46" y="228.85" width="16.35" height="16.35" transform="translate(408.66 65.39) rotate(90)"/>
    <rect class="cls-2" x="147.12" y="228.85" width="16.35" height="16.35" transform="translate(392.31 81.73) rotate(90)"/>
    <rect class="cls-2" x="130.77" y="228.85" width="16.35" height="16.35" transform="translate(375.97 98.08) rotate(90)"/>
    <rect class="cls-2" x="114.42" y="228.85" width="16.35" height="16.35" transform="translate(359.62 114.42) rotate(90)"/>
    <rect class="cls-2" x="98.08" y="228.85" width="16.35" height="16.35" transform="translate(343.27 130.77) rotate(90)"/>
    <rect class="cls-2" x="81.73" y="228.85" width="16.35" height="16.35" transform="translate(326.93 147.12) rotate(90)"/>
    <rect class="cls-2" x="65.39" y="228.85" width="16.35" height="16.35" transform="translate(310.58 163.46) rotate(90)"/>
    <rect class="cls-2" x="49.04" y="228.85" width="16.35" height="16.35" transform="translate(294.23 179.81) rotate(90)"/>
    <rect class="cls-2" x="32.69" y="228.85" width="16.35" height="16.35" transform="translate(277.89 196.16) rotate(90)"/>
    <rect class="cls-2" x="16.35" y="228.85" width="16.35" height="16.35" transform="translate(261.54 212.5) rotate(90)"/>
    <rect class="cls-3" x="179.81" y="245.2" width="16.35" height="16.35" transform="translate(441.35 65.39) rotate(90)"/>
    <rect class="cls-3" x="163.46" y="245.2" width="16.35" height="16.35" transform="translate(425.01 81.73) rotate(90)"/>
    <rect class="cls-3" x="147.12" y="245.2" width="16.35" height="16.35" transform="translate(408.66 98.08) rotate(90)"/>
    <rect class="cls-3" x="130.77" y="245.2" width="16.35" height="16.35" transform="translate(392.31 114.42) rotate(90)"/>
    <rect class="cls-3" x="114.42" y="245.2" width="16.35" height="16.35" transform="translate(375.97 130.77) rotate(90)"/>
    <rect class="cls-3" x="98.08" y="245.2" width="16.35" height="16.35" transform="translate(359.62 147.12) rotate(90)"/>
    <rect class="cls-3" x="81.73" y="245.2" width="16.35" height="16.35" transform="translate(343.27 163.46) rotate(90)"/>
    <rect class="cls-3" x="65.39" y="245.2" width="16.35" height="16.35" transform="translate(326.93 179.81) rotate(90)"/>
    <rect class="cls-3" x="49.04" y="245.2" width="16.35" height="16.35" transform="translate(310.58 196.16) rotate(90)"/>
    <rect class="cls-3" x="32.69" y="245.2" width="16.35" height="16.35" transform="translate(294.23 212.5) rotate(90)"/>
    <rect class="cls-4" x="163.46" y="261.54" width="16.35" height="16.35" transform="translate(441.35 98.08) rotate(90)"/>
    <rect class="cls-4" x="147.12" y="261.54" width="16.35" height="16.35" transform="translate(425.01 114.42) rotate(90)"/>
    <rect class="cls-2" x="130.77" y="261.54" width="16.35" height="16.35" transform="translate(408.66 130.77) rotate(90)"/>
    <rect class="cls-2" x="114.42" y="261.54" width="16.35" height="16.35" transform="translate(392.31 147.12) rotate(90)"/>
    <rect class="cls-2" x="98.08" y="261.54" width="16.35" height="16.35" transform="translate(375.97 163.46) rotate(90)"/>
    <rect class="cls-2" x="81.73" y="261.54" width="16.35" height="16.35" transform="translate(359.62 179.81) rotate(90)"/>
    <rect class="cls-2" x="65.39" y="261.54" width="16.35" height="16.35" transform="translate(343.27 196.16) rotate(90)"/>
    <rect class="cls-2" x="49.04" y="261.54" width="16.35" height="16.35" transform="translate(326.93 212.5) rotate(90)"/>
    <rect class="cls-2" x="32.69" y="261.54" width="16.35" height="16.35" transform="translate(310.58 228.85) rotate(90)"/>
    <rect class="cls-3" x="16.35" y="245.2" width="16.35" height="16.35" transform="translate(277.89 228.85) rotate(90)"/>
    <rect class="cls-9" x="212.5" y="245.2" width="16.35" height="16.35"/>
    <rect class="cls-9" x="196.16" y="261.54" width="16.35" height="16.35"/>
    <rect x="179.81" y="49.04" width="16.35" height="16.35"/>
    <rect x="196.16" y="32.69" width="16.35" height="16.35"/>
    <rect x="179.81" y="32.69" width="16.35" height="16.35"/>
    <rect x="163.46" y="32.69" width="16.35" height="16.35"/>
    <rect class="cls-1" x="147.12" y="32.69" width="16.35" height="16.35"/>
    <rect x="147.12" y="16.35" width="16.35" height="16.35"/>
    <rect x="163.46" y="16.35" width="16.35" height="16.35"/>
    <rect x="147.12" y="49.04" width="16.35" height="16.35"/>
    <rect x="147.12" y="65.39" width="16.35" height="16.35"/>
    <rect x="130.77" y="277.89" width="16.35" height="16.35"/>
    <rect x="130.77" y="32.69" width="16.35" height="16.35"/>
    <rect x="114.42" y="277.89" width="16.35" height="16.35"/>
    <rect x="114.42" y="32.69" width="16.35" height="16.35"/>
    <rect x="98.08" y="277.89" width="16.35" height="16.35"/>
    <rect class="cls-1" x="98.08" y="32.69" width="16.35" height="16.35"/>
    <rect x="98.08" y="16.35" width="16.35" height="16.35"/>
    <rect x="114.42" y="16.35" width="16.35" height="16.35"/>
    <rect x="98.08" y="49.04" width="16.35" height="16.35"/>
    <rect x="98.08" y="65.39" width="16.35" height="16.35"/>
    <rect x="81.73" y="277.89" width="16.35" height="16.35"/>
    <rect x="81.73" y="32.69" width="16.35" height="16.35"/>
    <rect x="65.39" y="277.89" width="16.35" height="16.35"/>
    <rect x="65.39" y="32.69" width="16.35" height="16.35"/>
    <rect x="49.04" y="277.89" width="16.35" height="16.35"/>
    <rect class="cls-1" x="49.04" y="32.69" width="16.35" height="16.35"/>
    <rect x="49.04" y="16.35" width="16.35" height="16.35"/>
    <rect x="65.39" y="16.35" width="16.35" height="16.35"/>
    <rect x="32.69" y="277.89" width="16.35" height="16.35"/>
    <rect x="16.35" y="261.54" width="16.35" height="16.35"/>
    <rect y="245.2" width="16.35" height="16.35"/>
    <rect x="32.69" y="32.69" width="16.35" height="16.35"/>
    <rect x="16.35" y="49.04" width="16.35" height="16.35"/>
    <rect x="49.04" y="49.04" width="16.35" height="16.35"/>
    <rect x="49.04" y="65.39" width="16.35" height="16.35"/>
    <rect y="65.39" width="16.35" height="16.35"/>
    <rect x="196.16" y="65.39" width="16.35" height="16.35"/>
    <rect x="130.77" y="212.5" width="16.35" height="16.35"/>
    <rect class="cls-6" x="130.77" y="228.85" width="16.35" height="16.35"/>
    <rect class="cls-6" x="114.42" y="228.85" width="16.35" height="16.35"/>
    <rect class="cls-6" x="98.08" y="228.85" width="16.35" height="16.35"/>
    <rect class="cls-6" x="81.73" y="228.85" width="16.35" height="16.35"/>
    <rect class="cls-6" x="65.39" y="228.85" width="16.35" height="16.35"/>
    <rect class="cls-6" x="49.04" y="228.85" width="16.35" height="16.35"/>
    <rect x="147.12" y="212.5" width="16.35" height="16.35"/>
    <rect x="163.46" y="212.5" width="16.35" height="16.35"/>
    <rect x="179.81" y="196.16" width="16.35" height="16.35"/>
    <rect x="196.16" y="179.81" width="16.35" height="16.35"/>
    <rect x="212.5" y="163.46" width="16.35" height="16.35"/>
    <rect x="228.85" y="147.12" width="16.35" height="16.35"/>
    <rect x="245.2" y="130.77" width="16.35" height="16.35"/>
    <rect x="261.54" y="114.42" width="16.35" height="16.35"/>
    <rect x="277.89" y="98.08" width="16.35" height="16.35"/>
    <rect x="294.23" y="81.73" width="16.35" height="16.35"/>
    <rect x="310.58" y="65.39" width="16.35" height="16.35"/>
    <rect x="130.77" y="196.16" width="16.35" height="16.35"/>
    <rect x="130.77" y="179.81" width="16.35" height="16.35"/>
    <rect x="147.12" y="163.46" width="16.35" height="16.35"/>
    <rect class="cls-8" x="147.12" y="179.81" width="16.35" height="16.35"/>
    <rect class="cls-8" x="147.12" y="196.16" width="16.35" height="16.35"/>
    <rect class="cls-7" x="163.46" y="196.16" width="16.35" height="16.35"/>
    <rect class="cls-5" x="163.46" y="163.46" width="16.35" height="16.35"/>
    <rect class="cls-8" x="163.46" y="179.81" width="16.35" height="16.35"/>
    <rect class="cls-7" x="179.81" y="179.81" width="16.35" height="16.35"/>
    <rect class="cls-5" x="179.81" y="147.12" width="16.35" height="16.35"/>
    <rect class="cls-8" x="179.81" y="163.46" width="16.35" height="16.35"/>
    <rect class="cls-7" x="196.16" y="163.46" width="16.35" height="16.35"/>
    <rect class="cls-5" x="196.16" y="130.77" width="16.35" height="16.35"/>
    <rect class="cls-8" x="196.16" y="147.12" width="16.35" height="16.35"/>
    <rect class="cls-7" x="212.5" y="147.12" width="16.35" height="16.35"/>
    <rect class="cls-5" x="212.5" y="114.42" width="16.35" height="16.35"/>
    <rect class="cls-8" x="212.5" y="130.77" width="16.35" height="16.35"/>
    <rect class="cls-7" x="228.85" y="130.77" width="16.35" height="16.35"/>
    <rect class="cls-5" x="228.85" y="98.08" width="16.35" height="16.35"/>
    <rect class="cls-8" x="228.85" y="114.42" width="16.35" height="16.35"/>
    <rect class="cls-7" x="245.2" y="114.42" width="16.35" height="16.35"/>
    <rect class="cls-5" x="245.2" y="81.73" width="16.35" height="16.35"/>
    <rect class="cls-8" x="245.2" y="98.08" width="16.35" height="16.35"/>
    <rect class="cls-7" x="261.54" y="98.08" width="16.35" height="16.35"/>
    <rect class="cls-5" x="261.54" y="65.39" width="16.35" height="16.35"/>
    <rect class="cls-8" x="261.54" y="81.73" width="16.35" height="16.35"/>
    <rect class="cls-7" x="277.89" y="81.73" width="16.35" height="16.35"/>
    <rect class="cls-5" x="277.89" y="49.04" width="16.35" height="16.35"/>
    <rect class="cls-8" x="277.89" y="65.39" width="16.35" height="16.35"/>
    <rect class="cls-7" x="294.23" y="65.39" width="16.35" height="16.35"/>
    <rect class="cls-5" x="294.23" y="32.69" width="16.35" height="16.35"/>
    <rect class="cls-8" x="294.23" y="49.04" width="16.35" height="16.35"/>
    <rect class="cls-7" x="310.58" y="49.04" width="16.35" height="16.35"/>
    <rect class="cls-5" x="310.58" y="16.35" width="16.35" height="16.35"/>
    <rect class="cls-8" x="310.58" y="32.69" width="16.35" height="16.35"/>
    <rect class="cls-7" x="326.93" y="32.69" width="16.35" height="16.35"/>
    <rect x="163.46" y="147.12" width="16.35" height="16.35"/>
    <rect x="179.81" y="130.77" width="16.35" height="16.35"/>
    <rect x="196.16" y="114.42" width="16.35" height="16.35"/>
    <rect x="212.5" y="98.08" width="16.35" height="16.35"/>
    <rect x="196.16" y="81.73" width="16.35" height="16.35"/>
    <rect x="196.16" y="65.39" width="16.35" height="16.35"/>
    <rect x="228.85" y="81.73" width="16.35" height="16.35"/>
    <rect x="245.2" y="65.39" width="16.35" height="16.35"/>
    <rect x="261.54" y="49.04" width="16.35" height="16.35"/>
    <rect x="277.89" y="32.69" width="16.35" height="16.35"/>
    <rect x="310.58" width="16.35" height="16.35"/>
    <rect x="326.93" width="16.35" height="16.35"/>
    <rect x="343.27" y="16.35" width="16.35" height="16.35"/>
    <rect class="cls-8" x="326.93" y="16.35" width="16.35" height="16.35"/>
    <rect x="343.27" y="32.69" width="16.35" height="16.35"/>
    <rect x="326.93" y="49.04" width="16.35" height="16.35"/>
    <rect x="294.23" y="16.35" width="16.35" height="16.35"/>
  </g>
</svg>