<?xml version="1.0" encoding="UTF-8"?>
<svg width="150px" id="Layer_2" data-name="Layer 2" xmlns="http://www.w3.org/2000/svg" viewBox="0 0 150 100">
  <defs>
    <style>
      .cls-1 {
        fill: #dafeda;
      }

      .cls-2 {
        fill: #2a37ae;
      }
    </style>
  </defs>
  <g id="Layer_2-2" data-name="Layer 2">
    <rect class="cls-1" width="150" height="100"/>
    <g>
      <path class="cls-2" d="M16.84,29.34c.17-.01,.32-.04,.47-.04,6.59,0,13.18-.03,19.77,.04,2.84,.03,5.57,.66,8.06,2.11,3.56,2.09,5.46,5.3,6.18,9.28,.38,2.09,.44,4.21,.21,6.3-.29,2.71-1.06,5.3-2.83,7.45-1.9,2.3-4.33,3.78-7.22,4.53-1.87,.49-3.78,.66-5.71,.68-2.08,.02-4.15,0-6.23,0-.96,0-.89-.14-.89,.86,0,4.51,0,9.02,0,13.53,0,.22,0,.43,0,.69h-11.81V29.34Zm11.9,9.42c-.05,.13-.08,.16-.08,.2,0,3.62-.01,7.25-.02,10.87,0,.35,.21,.36,.47,.36,1.31,0,2.62,.02,3.93-.01,.69-.02,1.4-.09,2.07-.24,2.23-.49,3.66-1.82,4.01-4.13,.11-.7,.1-1.42,.06-2.13-.12-2.28-1.37-3.85-3.56-4.51-2.27-.69-4.59-.27-6.88-.41Z"/>
      <path class="cls-2" d="M133.16,29.34c-.15,14.87-.3,29.69-.45,44.54h-7.22v-2.24s-.08-.01-.12-.02c-.24,.26-.48,.51-.72,.77-1.54,1.67-3.51,2.23-5.71,2.2-5.14-.06-9.21-4.2-9.97-9.5-.49-3.41,.06-6.62,2.06-9.48,2.7-3.87,7.45-5.06,11.23-3.62,1.02,.39,1.9,.99,2.67,1.75,.14,.14,.29,.28,.55,.53,.15-8.38,.3-16.63,.45-24.93h7.22Zm-7.4,33.67c-.04-.34-.07-.68-.13-1.01-.53-2.88-3.34-4.65-6.03-3.79-1.81,.58-3.56,2.65-3.3,5.3,.28,2.78,2.55,4.88,5.44,4.43,2.22-.34,3.99-2.52,4.01-4.93Z"/>
      <path class="cls-2" d="M84.28,50.13c-.54,0-1.03,0-1.53,0-1.17,.02-2.34,.05-3.5,.08-.02,1.17-.06,2.34-.06,3.51,0,6.84,0,13.69,0,20.53v.68h-9.02v-24.78h-2.94v-10.3h2.93v-10.51h9.03v10.49h5.09v10.3Z"/>
      <path class="cls-2" d="M100.71,47.36c-.98-1.13-2-2.08-2.77-3.21-5.35-7.82-.65-18.54,8.74-19.97,7.08-1.08,13.69,3.71,14.81,10.74,1.14,7.17-3.96,13.94-11.2,14.79-1.05,.12-2.14,.05-3.2,0-.44-.02-.65,.06-.84,.49-3.25,7.46-6.51,14.92-9.77,22.38-.41,.93-.92,1.74-1.91,2.15-1.18,.48-2.54,.19-3.43-.73-.89-.92-1.1-2.21-.56-3.46,.96-2.2,1.92-4.39,2.88-6.59,2.36-5.4,4.72-10.81,7.09-16.21,.07-.17,.14-.34,.16-.4Zm7.94-1.28c5.09,0,9.21-4.06,9.22-9.08,0-5.1-4.11-9.22-9.2-9.23-5.04,0-9.21,4.15-9.21,9.19,0,5.01,4.14,9.12,9.19,9.12Z"/>
      <path class="cls-2" d="M52.47,66.55c-.16,2.3,.87,4.34,3.64,4.54,1.55,.11,2.9-.28,3.86-1.6,.08-.11,.24-.22,.36-.22,2.13-.01,4.25,0,6.44,0-.28,1.06-.72,1.99-1.32,2.84-1.45,2.08-3.5,3.16-5.95,3.59-2.73,.47-5.43,.38-8.01-.72-3.54-1.51-5.53-4.22-6-8.04-.22-1.78-.08-3.54,.47-5.24,1-3.1,3.08-5.18,6.16-6.18,2.69-.87,5.43-.91,8.14-.08,3.75,1.14,5.82,3.79,6.54,7.55,.19,.99,.17,2.03,.26,3.04,.04,.43-.13,.54-.55,.54-4.46-.01-8.92,0-13.38,0-.22,0-.44,0-.69,0Zm8.11-3.98c-.23-2.09-2.36-3.53-4.72-3.24-1.77,.22-3.35,1.82-3.16,3.24h7.88Z"/>
      <path class="cls-2" d="M115.48,36c-.04,.25-.06,.52-.13,.78-.25,.94-1.08,1.35-1.98,.97-1.53-.64-2.68-3.1-2.18-4.69,.33-1.06,1.24-1.41,2.21-.81,1.11,.67,1.7,1.73,1.97,2.97,.05,.25,.07,.5,.11,.78Z"/>
    </g>
  </g>
</svg>