<?xml version="1.0" encoding="utf-8"?>
<!-- Generator: Adobe Illustrator 26.5.0, SVG Export Plug-In . SVG Version: 6.00 Build 0)  -->
<svg version="1.1" id="Layer_1" xmlns="http://www.w3.org/2000/svg" xmlns:xlink="http://www.w3.org/1999/xlink" x="0px" y="0px"
	 viewBox="0 0 780.17 454.68" style="enable-background:new 0 0 780.17 454.68;" xml:space="preserve">
<style type="text/css">
	.st0{fill:none;stroke:#000000;stroke-width:3;stroke-miterlimit:10;}
	.st1{fill:none;stroke:#000000;stroke-width:6;stroke-miterlimit:10;}
	.st2{fill:none;stroke:#000000;stroke-width:5;stroke-miterlimit:10;}
	.st3{fill:none;stroke:#000000;stroke-width:2;stroke-miterlimit:10;}
	.st4{fill:none;stroke:#000000;stroke-width:4;stroke-miterlimit:10;}
	.st5{fill:none;stroke:#000000;stroke-width:1.5;stroke-miterlimit:10;}
	.st6{fill:none;stroke:#000000;stroke-width:1.25;stroke-miterlimit:10;}
</style>
<g>
	<path class="st0" d="M192.24,165.18h-39.99c-1.89,0-2.72,0.84-2.72,2.73v9.16c0,1.89,0.83,2.72,2.72,2.72h11.13v37.19
		c0,1.89,0.83,2.72,2.72,2.72h12.27c1.89,0,2.72-0.83,2.72-2.72V179.8h11.13c1.89,0,2.73-0.83,2.73-2.72v-9.16
		C194.98,166.01,194.14,165.18,192.24,165.18z M188.15,172.75h-15.53v40.14h-0.75v-40.14h-15.53v-0.76h31.81V172.75z"/>
	<path class="st0" d="M227.77,172.75h-16.51v21.89h16.51c6.29,0,7.88-3.11,7.88-8.71v-5.31
		C235.65,175.93,233.15,172.75,227.77,172.75z M228.45,184.94c0,2.05-0.69,3.56-3.34,3.56h-5.68v-9.69h5.68
		c2.65,0,3.34,1.51,3.34,3.55V184.94z M227.77,172.75h-16.51v21.89h16.51c6.29,0,7.88-3.11,7.88-8.71v-5.31
		C235.65,175.93,233.15,172.75,227.77,172.75z M228.45,184.94c0,2.05-0.69,3.56-3.34,3.56h-5.68v-9.69h5.68
		c2.65,0,3.34,1.51,3.34,3.55V184.94z M241.86,212.89h-0.76v-10.14c0-5-2.65-7.43-8.41-7.43h-21.43v17.57h-0.76v-40.9h17.27
		c5.91,0,8.64,3.64,8.64,8.64v5.23c0,4.62-0.91,7.65-4.54,8.79h0.83c6.21,0,9.17,2.8,9.17,8.11V212.89z M235.65,185.93v-5.31
		c0-4.69-2.5-7.87-7.88-7.87h-16.51v21.89h16.51C234.05,194.64,235.65,191.53,235.65,185.93z M228.45,184.94
		c0,2.05-0.69,3.56-3.34,3.56h-5.68v-9.69h5.68c2.65,0,3.34,1.51,3.34,3.55V184.94z M227.77,172.75h-16.51v21.89h16.51
		c6.29,0,7.88-3.11,7.88-8.71v-5.31C235.65,175.93,233.15,172.75,227.77,172.75z M228.45,184.94c0,2.05-0.69,3.56-3.34,3.56h-5.68
		v-9.69h5.68c2.65,0,3.34,1.51,3.34,3.55V184.94z M227.77,172.75h-16.51v21.89h16.51c6.29,0,7.88-3.11,7.88-8.71v-5.31
		C235.65,175.93,233.15,172.75,227.77,172.75z M228.45,184.94c0,2.05-0.69,3.56-3.34,3.56h-5.68v-9.69h5.68
		c2.65,0,3.34,1.51,3.34,3.55V184.94z M241.43,190.02c5.26,0.78,8.69,4.75,8.69,10.92v16.05c0,1.89-0.84,2.72-2.73,2.72h-11.74
		c-1.89,0-2.72-0.83-2.72-2.72V205.4c0-2.27-0.76-3.26-2.88-3.26h-10.61v14.85c0,1.89-0.83,2.72-2.72,2.72h-11.66
		c-1.89,0-2.72-0.83-2.72-2.72v-49.08c0-1.89,0.83-2.73,2.72-2.73h25.22c11.37,0,14.92,5.16,14.92,12.65v3.49
		c0,4.04-0.96,6.98-3.8,8.42"/>
	<path class="st0" d="M294.57,189.72l-5.23-12.35c-1.13-2.65-1.97-4.62-4.77-4.62h-7.42c-3.03,0-3.86,1.97-4.85,4.54l-4.85,12.42
		c-0.75,2.05-1.21,4.32-1.21,7.04v2.35h29.54v-2.35C295.78,194.04,295.33,191.77,294.57,189.72z M274.81,192.6l3.55-11.51
		c0.38-0.91,0.84-1.29,1.44-1.29h1.89c0.6,0,1.06,0.38,1.43,1.29l3.56,11.51H274.81z M294.57,189.72l-5.23-12.35
		c-1.13-2.65-1.97-4.62-4.77-4.62h-7.42c-3.03,0-3.86,1.97-4.85,4.54l-4.85,12.42c-0.75,2.05-1.21,4.32-1.21,7.04v2.35h29.54v-2.35
		C295.78,194.04,295.33,191.77,294.57,189.72z M274.81,192.6l3.55-11.51c0.38-0.91,0.84-1.29,1.44-1.29h1.89
		c0.6,0,1.06,0.38,1.43,1.29l3.56,11.51H274.81z M301.62,184.87l-6.59-17.19c-0.6-1.74-1.82-2.51-3.79-2.51h-20.37
		c-2.05,0-3.26,0.76-3.86,2.51l-6.59,17.19c-2.05,5.31-2.95,9.1-2.95,12.12v19.99c0,1.89,0.83,2.72,2.72,2.72h11.13
		c1.89,0,2.72-0.83,2.72-2.72v-10.61h13.41v10.61c0,1.89,0.91,2.72,2.96,2.72h11.44c1.89,0,2.72-0.83,2.72-2.72v-19.99
		C304.57,193.96,303.66,190.18,301.62,184.87z M296.54,212.89h-0.76v-13.03h-29.54v13.03h-0.76v-16.13c0-2.8,0.46-5.16,1.29-7.35
		l4.85-12.42c1.14-2.81,2.05-5,5.53-5h7.42c3.34,0,4.24,2.12,5.46,5.08l5.22,12.34c0.83,2.2,1.29,4.55,1.29,7.35V212.89z
		 M289.34,177.37c-1.13-2.65-1.97-4.62-4.77-4.62h-7.42c-3.03,0-3.86,1.97-4.85,4.54l-4.85,12.42c-0.75,2.05-1.21,4.32-1.21,7.04
		v2.35h29.54v-2.35c0-2.72-0.45-5-1.21-7.04L289.34,177.37z M274.81,192.6l3.55-11.51c0.38-0.91,0.84-1.29,1.44-1.29h1.89
		c0.6,0,1.06,0.38,1.43,1.29l3.56,11.51H274.81z M294.57,189.72l-5.23-12.35c-1.13-2.65-1.97-4.62-4.77-4.62h-7.42
		c-3.03,0-3.86,1.97-4.85,4.54l-4.85,12.42c-0.75,2.05-1.21,4.32-1.21,7.04v2.35h29.54v-2.35
		C295.78,194.04,295.33,191.77,294.57,189.72z M274.81,192.6l3.55-11.51c0.38-0.91,0.84-1.29,1.44-1.29h1.89
		c0.6,0,1.06,0.38,1.43,1.29l3.56,11.51H274.81z M294.57,189.72l-5.23-12.35c-1.13-2.65-1.97-4.62-4.77-4.62h-7.42
		c-3.03,0-3.86,1.97-4.85,4.54l-4.85,12.42c-0.75,2.05-1.21,4.32-1.21,7.04v2.35h29.54v-2.35
		C295.78,194.04,295.33,191.77,294.57,189.72z M274.81,192.6l3.55-11.51c0.38-0.91,0.84-1.29,1.44-1.29h1.89
		c0.6,0,1.06,0.38,1.43,1.29l3.56,11.51H274.81z"/>
	<path class="st0" d="M340.47,172.75h-17.58v39.39h17.58c9.69,0,11.36-4.02,11.36-9.55v-20.07
		C351.83,177,350.01,172.75,340.47,172.75z M343.65,201.69c0,2.57-1.14,3.71-3.56,3.71h-9.01v-25.75h9.01
		c2.42,0,3.56,1.14,3.56,3.64V201.69z M340.47,172.75h-17.58v39.39h17.58c9.69,0,11.36-4.02,11.36-9.55v-20.07
		C351.83,177,350.01,172.75,340.47,172.75z M343.65,201.69c0,2.57-1.14,3.71-3.56,3.71h-9.01v-25.75h9.01
		c2.42,0,3.56,1.14,3.56,3.64V201.69z M342.13,165.18h-25.52c-1.89,0-2.73,0.84-2.73,2.73v49.08c0,1.89,0.84,2.72,2.73,2.72h25.52
		c12.73,0,18.64-4.92,18.64-15.45v-23.63C360.77,170.11,354.86,165.18,342.13,165.18z M352.59,202.59c0,5.83-1.67,10.3-12.11,10.3
		h-18.33v-40.9h18.33c10.29,0,12.11,4.7,12.11,10.53V202.59z M340.47,172.75h-17.58v39.39h17.58c9.69,0,11.36-4.02,11.36-9.55
		v-20.07C351.83,177,350.01,172.75,340.47,172.75z M343.65,201.69c0,2.57-1.14,3.71-3.56,3.71h-9.01v-25.75h9.01
		c2.42,0,3.56,1.14,3.56,3.64V201.69z M340.47,172.75h-17.58v39.39h17.58c9.69,0,11.36-4.02,11.36-9.55v-20.07
		C351.83,177,350.01,172.75,340.47,172.75z M343.65,201.69c0,2.57-1.14,3.71-3.56,3.71h-9.01v-25.75h9.01
		c2.42,0,3.56,1.14,3.56,3.64V201.69z M340.47,172.75h-17.58v39.39h17.58c9.69,0,11.36-4.02,11.36-9.55v-20.07
		C351.83,177,350.01,172.75,340.47,172.75z M343.65,201.69c0,2.57-1.14,3.71-3.56,3.71h-9.01v-25.75h9.01
		c2.42,0,3.56,1.14,3.56,3.64V201.69z"/>
	<path class="st0" d="M404.16,179.8c1.89,0,2.73-0.83,2.73-2.72v-9.16c0-1.89-0.84-2.73-2.73-2.73H371.9
		c-1.89,0-2.73,0.84-2.73,2.73v9.16c0,1.89,0.84,2.72,2.73,2.72h7.49v25.45h-7.49c-1.89,0-2.73,0.83-2.73,2.72v9.01
		c0,1.89,0.84,2.72,2.73,2.72h32.26c1.89,0,2.73-0.83,2.73-2.72v-9.01c0-1.89-0.84-2.72-2.73-2.72h-7.34V179.8H404.16z
		 M400.08,212.14v0.75h-24.09v-0.75h11.75v-39.39h-11.75v-0.76h24.09v0.76h-11.59v39.39H400.08z"/>
	<path class="st0" d="M460.06,165.18H448.7c-1.89,0-2.73,0.84-2.73,2.73v16.13l-14.69-16.82c-1.29-1.51-2.51-2.05-4.47-2.05h-7.88
		c-1.89,0-2.72,0.84-2.72,2.73v49.08c0,1.89,0.83,2.72,2.72,2.72h11.36c1.89,0,2.72-0.83,2.72-2.72v-24.99l12.95,15.68v9.31
		c0,1.89,0.84,2.72,2.73,2.72h11.36c1.89,0,2.72-0.83,2.72-2.72v-49.08C462.79,166.01,461.96,165.18,460.06,165.18z M454.83,212.89
		h-0.75v-7.8l-28.63-32.12c-0.15-0.15-0.23-0.23-0.38-0.23c-0.15,0-0.15,0.15-0.15,0.23v39.91h-0.76v-40.06
		c0-0.6,0.46-0.91,0.91-0.91c0.45,0,0.6,0.16,1.13,0.69l27.88,31.35v-31.97h0.75V212.89z"/>
	<path class="st0" d="M514.9,190.85h-11.75c-1.89,0-2.72,0.83-2.72,2.72v11.82h-7.34c-2.35,0-3.49-1.14-3.49-3.71v-18.1
		c0-2.57,1.44-3.79,4.62-3.79h15.75c1.89,0,2.73-0.83,2.73-2.72v-9.16c0-1.89-0.84-2.73-2.73-2.73h-18.93
		c-12.73,0-18.64,4.93-18.64,15.45v23.63c0,10.53,5.91,15.45,18.64,15.45h23.86c1.89,0,2.72-0.83,2.72-2.72v-23.41
		C517.63,191.68,516.79,190.85,514.9,190.85z M509.37,212.89h-15.07c-11.13,0-13.63-2.72-13.63-9.77v-21.21
		c0-7.19,2.42-9.93,12.12-9.93h13.1v0.76h-13.1c-8.95,0-11.37,2.42-11.37,9.16v21.21c0,6.59,2.65,9.01,12.88,9.01h14.32v-14.47h0.75
		V212.89z"/>
	<path class="st0" d="M384.13,299.09c-1.89,0-2.73-0.83-2.73-2.73v-37.19h-11.13c-1.89,0-2.73-0.83-2.73-2.73v-9.17
		c0-1.89,0.83-2.73,2.73-2.73h39.99c1.89,0,2.73,0.83,2.73,2.73v9.17c0,1.89-0.83,2.73-2.73,2.73h-11.13v37.19
		c0,1.89-0.83,2.73-2.73,2.73H384.13z M390.65,292.27v-40.14h15.53v-0.76h-31.81v0.76h15.53v40.14H390.65z"/>
	<path class="st0" d="M430.03,299.09h-11.13c-1.89,0-2.73-0.83-2.73-2.73v-20c0-3.03,0.91-6.82,2.95-12.12l6.59-17.19
		c0.61-1.74,1.82-2.5,3.86-2.5h20.38c1.97,0,3.18,0.76,3.79,2.5l6.59,17.19c2.04,5.3,2.95,9.09,2.95,12.12v20
		c0,1.89-0.83,2.73-2.73,2.73h-11.44c-2.04,0-2.95-0.83-2.95-2.73v-10.6h-13.41v10.6C432.76,298.26,431.92,299.09,430.03,299.09z
		 M455.25,292.27v-16.13c0-2.8-0.45-5.15-1.29-7.35l-5.23-12.35c-1.21-2.95-2.12-5.07-5.45-5.07h-7.42c-3.48,0-4.39,2.2-5.53,5
		l-4.85,12.42c-0.83,2.2-1.29,4.54-1.29,7.35v16.13h0.76v-13.03h29.54v13.03H455.25z M426.17,269.1l4.85-12.42
		c0.98-2.58,1.82-4.54,4.85-4.54h7.42c2.8,0,3.64,1.97,4.77,4.62l5.23,12.35c0.76,2.04,1.21,4.32,1.21,7.04v2.35h-29.54v-2.35
		C424.95,273.41,425.41,271.14,426.17,269.1z M433.51,271.98h11.89l-3.56-11.51c-0.38-0.91-0.83-1.29-1.44-1.29h-1.89
		c-0.61,0-1.06,0.38-1.44,1.29L433.51,271.98z"/>
	<path class="st0" d="M475.32,299.09c-1.89,0-2.73-0.83-2.73-2.73v-49.08c0-1.89,0.83-2.73,2.73-2.73h23.18
		c13.79,0,17.88,5.98,17.88,14.77v9.7c0,8.79-4.09,14.77-17.88,14.77h-8.71v12.57c0,1.89-0.83,2.73-2.73,2.73H475.32z M508.8,267.28
		v-5.61c0-5.91-1.82-10.3-11.36-10.3h-16.36v40.9h0.76v-14.92h15.6C506.98,277.35,508.8,273.19,508.8,267.28z M481.84,252.13h15.6
		c8.94,0,10.6,4.09,10.6,9.54v5.61c0,5.45-1.67,9.32-10.6,9.32h-15.6V252.13z M489.64,270.16h6.82c2.95,0,3.56-1.74,3.56-3.71v-4.01
		c0-1.97-0.61-3.71-3.56-3.71h-6.82V270.16z"/>
	<path class="st0" d="M526.98,299.09c-1.89,0-2.73-0.83-2.73-2.73v-49.08c0-1.89,0.83-2.73,2.73-2.73h35.15
		c1.89,0,2.73,0.83,2.73,2.73v8.86c0,1.89-0.83,2.73-2.73,2.73h-20.91v5.83h14.77c1.89,0,2.73,0.83,2.73,2.73v8.1
		c0,1.89-0.83,2.73-2.73,2.73h-14.77v6.51h20.91c1.89,0,2.73,0.83,2.73,2.73v8.86c0,1.89-0.83,2.73-2.73,2.73H526.98z
		 M533.26,291.52V271.9h18.63v-0.76h-18.63v-19.01h24.77v-0.76H532.5v40.9h25.53v-0.76H533.26z"/>
	<path class="st0" d="M575.15,299.09c-1.89,0-2.73-0.83-2.73-2.73v-8.86c0-1.89,0.83-2.73,2.73-2.73h20.38
		c1.29,0,1.97-0.99,1.97-2.2c0-1.74-0.68-2.42-1.97-2.58l-11.36-1.59c-7.12-1.06-11.74-4.09-11.74-12.57v-7.95
		c0-8.63,5.83-13.33,15.68-13.33h21.21c1.89,0,2.73,0.83,2.73,2.73v9.01c0,1.89-0.83,2.73-2.73,2.73h-17.65
		c-1.29,0-2.04,0.91-2.04,2.27s0.76,2.27,2.04,2.42l11.29,1.52c7.12,1.06,11.82,4.09,11.82,12.57v7.95
		c0,8.63-5.91,13.33-15.68,13.33H575.15z M588.4,251.37c-4.7,0-7.73,2.88-7.73,6.89v6.21c0,4.17,1.82,5.3,4.47,5.83l15.98,3.26
		c2.8,0.61,4.62,1.89,4.62,6.67v4.39c0,4.01-2.95,6.89-7.65,6.89h-18.86v0.76h18.86c5.15,0,8.41-3.18,8.41-7.65v-4.39
		c0-5.3-2.2-6.82-5.23-7.42l-15.98-3.26c-2.35-0.46-3.86-1.52-3.86-5.08v-6.21c0-3.56,2.73-6.14,6.97-6.14h16.81v-0.76H588.4z"/>
	<path class="st1" d="M219.07,237.16h-66.06c0,0-11.44,1.91-11.71-13.89s0-59.93,0-59.93s-1.63-13.35,11.99-13.62
		c13.62-0.27,69.74,0,69.74,0l182.12-0.12h100.61"/>
	<path class="st1" d="M627.72,214.62v81.27c0,0,0.91,14.03-19.57,14.46c-20.49,0.44-116.54,0-116.54,0l-83.31,0.19h-48.71"/>
	<path d="M504.09,141.84v15.82c0,0.81,0.56,1.38,1.1,1.13l17.29-7.96c0.88-0.4,0.88-2.16,0-2.56l-17.02-7.84
		C504.79,140.12,504.09,140.83,504.09,141.84z"/>
	<circle cx="216.91" cy="237.24" r="5.6"/>
	<path class="st2" d="M335.65,319.89l-112.83-14.61c-1.93-0.25-3.3-2.02-3.05-3.95l8.86-68.39c0.25-1.93,2.02-3.3,3.95-3.05
		l112.83,14.61c1.93,0.25,3.3,2.02,3.05,3.95l-8.86,68.39C339.35,318.78,337.58,320.14,335.65,319.89z"/>
	<path class="st3" d="M309.63,296.6c-0.47-0.84-1.47-1.45-2.61-1.6l-50.41-6.54c-1-0.13-1.97,0.17-2.56,0.78l-16.42,17.02
		l83.44,10.82L309.63,296.6z M256.57,304.77c-1.18-0.15-2.02-1.24-1.86-2.42c0.01-0.05,0.02-0.11,0.03-0.15
		c0.22-1.1,1.26-1.86,2.39-1.71c1.13,0.15,1.94,1.14,1.87,2.26c0,0.05,0,0.1-0.01,0.16C258.83,304.09,257.75,304.92,256.57,304.77z
		 M268.7,298.5c-0.72-0.09-1.23-0.76-1.14-1.48c0.01-0.05,0.02-0.11,0.03-0.15c0.16-0.64,0.78-1.07,1.45-0.99
		c0.67,0.09,1.16,0.66,1.15,1.32c0,0.05,0,0.1-0.01,0.16C270.09,298.08,269.43,298.6,268.7,298.5z M294.54,301.85
		c-0.72-0.09-1.24-0.76-1.14-1.48c0.01-0.05,0.02-0.11,0.03-0.15c0.16-0.64,0.78-1.07,1.45-0.99c0.67,0.09,1.16,0.66,1.16,1.32
		c0,0.05,0,0.1-0.01,0.16C295.94,301.43,295.27,301.95,294.54,301.85z M305.45,311.11c-1.18-0.15-2.01-1.24-1.86-2.42
		c0.01-0.05,0.02-0.11,0.03-0.15c0.22-1.1,1.26-1.86,2.39-1.71c1.13,0.15,1.94,1.14,1.87,2.26c0,0.05,0,0.1-0.01,0.16
		C307.72,310.43,306.64,311.26,305.45,311.11z"/>
	<path class="st4" d="M294.92,276.59l-21.37-2.77c-0.9-0.12-1.53-0.94-1.41-1.83l0.93-7.19c0.12-0.9,0.94-1.53,1.83-1.41l21.37,2.77
		c0.9,0.12,1.53,0.94,1.41,1.83l-0.93,7.19C296.63,276.07,295.81,276.7,294.92,276.59z"/>
	<path class="st4" d="M322.88,289.62l-79.49-10.29c-2.1-0.27-3.59-2.2-3.31-4.3l3.87-29.92c0.27-2.1,2.2-3.59,4.3-3.31l79.49,10.29
		c2.1,0.27,3.59,2.2,3.31,4.3l-3.87,29.92C326.91,288.41,324.98,289.89,322.88,289.62z"/>
	<circle class="st5" cx="310.3" cy="273.28" r="4.98"/>
	<path d="M310.76,270.34l-0.1-0.01c-0.24-0.03-0.41-0.25-0.38-0.49l0.2-1.51c0.03-0.24,0.25-0.41,0.49-0.38l0.1,0.01
		c0.24,0.03,0.41,0.25,0.38,0.49l-0.2,1.51C311.22,270.21,311,270.38,310.76,270.34z"/>
	<path d="M309.79,278.62l-0.32-0.04c-0.18-0.02-0.31-0.19-0.28-0.37l0.22-1.66c0.02-0.18,0.19-0.31,0.37-0.28l0.32,0.04
		c0.18,0.02,0.31,0.19,0.28,0.37l-0.22,1.66C310.14,278.51,309.98,278.64,309.79,278.62z"/>
	<path d="M313.15,273.71l0.02-0.12c0.03-0.22,0.23-0.37,0.44-0.34l1.51,0.2c0.22,0.03,0.37,0.23,0.34,0.44l-0.02,0.12
		c-0.03,0.22-0.23,0.37-0.44,0.34l-1.51-0.2C313.27,274.12,313.12,273.92,313.15,273.71z"/>
	<path d="M305.16,272.63l0-0.03c0.03-0.24,0.25-0.41,0.49-0.38l1.33,0.17c0.24,0.03,0.41,0.25,0.38,0.49l0,0.03
		c-0.03,0.24-0.25,0.41-0.49,0.38l-1.33-0.17C305.3,273.09,305.13,272.87,305.16,272.63z"/>
	<path d="M314.53,270.1l0.01,0.02c0.14,0.18,0.11,0.44-0.08,0.58l-1.09,0.84c-0.18,0.14-0.44,0.11-0.58-0.08l-0.01-0.02
		c-0.14-0.18-0.11-0.44,0.08-0.58l1.09-0.84C314.13,269.88,314.39,269.91,314.53,270.1z"/>
	<path d="M307.75,275.15l0.17,0.23c0.12,0.15,0.09,0.37-0.06,0.48l-1.2,0.92c-0.15,0.12-0.37,0.09-0.48-0.06l-0.17-0.23
		c-0.12-0.15-0.09-0.37,0.06-0.48l1.2-0.92C307.42,274.97,307.64,275,307.75,275.15z"/>
	<path d="M312.2,275.72l-0.07,0.06c-0.19,0.14-0.22,0.41-0.08,0.6l0.88,1.15c0.14,0.19,0.41,0.22,0.6,0.08l0.07-0.06
		c0.19-0.14,0.22-0.41,0.08-0.6l-0.88-1.15C312.65,275.61,312.38,275.57,312.2,275.72z"/>
	<path d="M307.14,269.09L307,269.2c-0.16,0.13-0.19,0.36-0.07,0.53l0.87,1.12c0.13,0.16,0.36,0.19,0.53,0.07l0.14-0.11
		c0.16-0.13,0.19-0.36,0.07-0.53l-0.87-1.12C307.54,268.99,307.3,268.96,307.14,269.09z"/>
	<circle class="st5" cx="259.28" cy="266.67" r="4.98"/>
	<path d="M259.74,263.74l-0.1-0.01c-0.24-0.03-0.41-0.25-0.38-0.49l0.2-1.51c0.03-0.24,0.25-0.41,0.49-0.38l0.1,0.01
		c0.24,0.03,0.41,0.25,0.38,0.49l-0.2,1.51C260.2,263.6,259.98,263.77,259.74,263.74z"/>
	<path d="M258.78,272.01l-0.32-0.04c-0.18-0.02-0.31-0.19-0.28-0.37l0.22-1.66c0.02-0.18,0.19-0.31,0.37-0.28l0.32,0.04
		c0.18,0.02,0.31,0.19,0.28,0.37l-0.22,1.66C259.12,271.91,258.96,272.04,258.78,272.01z"/>
	<path d="M262.13,267.1l0.02-0.12c0.03-0.22,0.23-0.37,0.44-0.34l1.51,0.2c0.22,0.03,0.37,0.23,0.34,0.44l-0.02,0.12
		c-0.03,0.22-0.23,0.37-0.44,0.34l-1.51-0.2C262.25,267.52,262.1,267.32,262.13,267.1z"/>
	<path d="M254.14,266.02l0-0.03c0.03-0.24,0.25-0.41,0.49-0.38l1.33,0.17c0.24,0.03,0.41,0.25,0.38,0.49l0,0.03
		c-0.03,0.24-0.25,0.41-0.49,0.38l-1.33-0.17C254.28,266.48,254.11,266.26,254.14,266.02z"/>
	<path d="M263.51,263.49l0.01,0.02c0.14,0.18,0.11,0.44-0.08,0.58l-1.09,0.84c-0.18,0.14-0.44,0.11-0.58-0.08l-0.01-0.02
		c-0.14-0.18-0.11-0.44,0.08-0.58l1.09-0.84C263.11,263.28,263.37,263.31,263.51,263.49z"/>
	<path d="M256.74,268.55l0.17,0.23c0.12,0.15,0.09,0.37-0.06,0.48l-1.2,0.92c-0.15,0.12-0.37,0.09-0.48-0.06l-0.17-0.23
		c-0.12-0.15-0.09-0.37,0.06-0.48l1.2-0.92C256.4,268.37,256.62,268.4,256.74,268.55z"/>
	<path d="M261.18,269.11l-0.07,0.06c-0.19,0.14-0.22,0.41-0.08,0.6l0.88,1.15c0.14,0.19,0.41,0.22,0.6,0.08l0.07-0.06
		c0.19-0.14,0.22-0.41,0.08-0.6l-0.88-1.15C261.64,269,261.37,268.97,261.18,269.11z"/>
	<path d="M256.12,262.48l-0.14,0.11c-0.16,0.13-0.19,0.36-0.07,0.53l0.87,1.12c0.13,0.16,0.36,0.19,0.53,0.07l0.14-0.11
		c0.16-0.13,0.19-0.36,0.07-0.53l-0.87-1.12C256.52,262.39,256.29,262.36,256.12,262.48z"/>
	<circle cx="269.02" cy="297.39" r="1.14"/>
	<circle cx="294.72" cy="300.86" r="1.28"/>
	<circle cx="305.76" cy="308.95" r="1.52"/>
	<circle cx="256.86" cy="302.62" r="1.52"/>
	<path class="st2" d="M636.49,197.12l-92.14,28c-1.86,0.57-3.84-0.49-4.4-2.35l-16.86-55.46c-0.57-1.86,0.49-3.84,2.35-4.4l92.14-28
		c1.86-0.57,3.84,0.49,4.4,2.35l16.86,55.46C639.4,194.59,638.35,196.56,636.49,197.12z"/>
	<path class="st3" d="M608.5,187.96c-0.66-0.49-1.65-0.62-2.6-0.33l-41.6,12.64c-0.82,0.25-1.48,0.82-1.72,1.51l-6.82,19.05
		l68.86-20.92L608.5,187.96z M570,213.01c-0.98,0.3-2.01-0.25-2.3-1.23c-0.01-0.04-0.02-0.09-0.03-0.13
		c-0.21-0.94,0.33-1.89,1.26-2.17c0.93-0.28,1.91,0.21,2.26,1.11c0.02,0.04,0.03,0.08,0.05,0.13
		C571.52,211.68,570.97,212.71,570,213.01z M577.25,203.85c-0.6,0.18-1.23-0.16-1.41-0.76c-0.01-0.04-0.02-0.09-0.03-0.13
		c-0.1-0.56,0.23-1.11,0.78-1.28s1.14,0.11,1.36,0.63c0.02,0.04,0.03,0.08,0.05,0.13C578.19,203.04,577.85,203.67,577.25,203.85z
		 M598.58,197.37c-0.6,0.18-1.23-0.16-1.41-0.76c-0.01-0.04-0.02-0.09-0.03-0.13c-0.1-0.56,0.23-1.11,0.78-1.28
		c0.56-0.17,1.14,0.11,1.37,0.63c0.02,0.04,0.03,0.08,0.05,0.13C599.52,196.56,599.18,197.19,598.58,197.37z M610.34,200.75
		c-0.98,0.3-2.01-0.25-2.3-1.23c-0.01-0.04-0.02-0.09-0.03-0.13c-0.22-0.94,0.33-1.89,1.26-2.17c0.93-0.28,1.91,0.21,2.26,1.11
		c0.02,0.04,0.03,0.08,0.05,0.13C611.87,199.42,611.32,200.45,610.34,200.75z"/>
	<path class="st4" d="M589.76,177.61l-17.18,5.22c-0.86,0.26-1.78-0.23-2.04-1.09l-1.67-5.48c-0.26-0.86,0.23-1.78,1.09-2.04
		l17.18-5.22c0.86-0.26,1.78,0.23,2.04,1.09l1.67,5.48C591.11,176.43,590.62,177.35,589.76,177.61z"/>
	<path class="st4" d="M615.14,178.47l-64.54,19.62c-2.03,0.62-4.17-0.53-4.79-2.56l-7.18-23.63c-0.62-2.03,0.53-4.17,2.56-4.79
		l64.54-19.62c2.03-0.62,4.17,0.53,4.79,2.56l7.18,23.63C618.31,175.71,617.17,177.85,615.14,178.47z"/>
	<circle class="st6" cx="600.81" cy="169.55" r="4.26"/>
	<path d="M600.1,167.11L600.1,167.11c-0.22,0.07-0.46-0.06-0.52-0.28l-0.35-1.16c-0.07-0.22,0.06-0.46,0.28-0.52l0,0
		c0.22-0.07,0.46,0.06,0.52,0.28l0.35,1.16C600.44,166.81,600.32,167.05,600.1,167.11z"/>
	<path d="M602.25,173.9l-0.17,0.05c-0.17,0.05-0.36-0.05-0.41-0.22l-0.39-1.28c-0.05-0.17,0.05-0.36,0.22-0.41l0.17-0.05
		c0.17-0.05,0.36,0.05,0.41,0.22l0.39,1.28C602.52,173.67,602.43,173.85,602.25,173.9z"/>
	<path d="M603.17,168.83L603.17,168.83c-0.06-0.21,0.05-0.42,0.26-0.48l1.15-0.35c0.21-0.06,0.42,0.05,0.48,0.26l0,0
		c0.06,0.21-0.05,0.42-0.26,0.48l-1.15,0.35C603.45,169.16,603.23,169.04,603.17,168.83z"/>
	<path d="M596.57,170.84L596.57,170.84c-0.06-0.21,0.05-0.42,0.26-0.48l1.08-0.33c0.21-0.06,0.42,0.05,0.48,0.26l0,0
		c0.06,0.21-0.05,0.42-0.26,0.48l-1.08,0.33C596.85,171.16,596.63,171.04,596.57,170.84z"/>
	<path d="M603,165.59L603,165.59c0.18,0.09,0.24,0.32,0.15,0.49l-0.55,1.02c-0.09,0.18-0.32,0.24-0.49,0.15h0
		c-0.18-0.09-0.24-0.32-0.15-0.49l0.55-1.02C602.6,165.56,602.82,165.49,603,165.59z"/>
	<path d="M599.53,171.93l0.13,0.07c0.17,0.09,0.23,0.3,0.14,0.46l-0.56,1.05c-0.09,0.17-0.3,0.23-0.46,0.14l-0.13-0.07
		c-0.17-0.09-0.23-0.3-0.14-0.46l0.56-1.05C599.15,171.9,599.36,171.84,599.53,171.93z"/>
	<path d="M603.13,170.82L603.13,170.82c-0.11,0.2-0.03,0.44,0.17,0.55l1.02,0.55c0.2,0.11,0.44,0.03,0.55-0.17l0,0
		c0.11-0.2,0.03-0.44-0.17-0.55l-1.02-0.55C603.48,170.54,603.23,170.62,603.13,170.82z"/>
	<path d="M596.85,167.44l-0.02,0.04c-0.1,0.18-0.03,0.41,0.15,0.51l0.98,0.52c0.18,0.1,0.41,0.03,0.51-0.15l0.02-0.04
		c0.1-0.18,0.03-0.41-0.15-0.51l-0.98-0.52C597.17,167.19,596.95,167.26,596.85,167.44z"/>
	<circle class="st6" cx="558.71" cy="182.35" r="4.26"/>
	<path d="M558,179.91L558,179.91c-0.22,0.07-0.46-0.06-0.52-0.28l-0.35-1.16c-0.07-0.22,0.06-0.46,0.28-0.52l0,0
		c0.22-0.07,0.46,0.06,0.52,0.28l0.35,1.16C558.34,179.61,558.22,179.84,558,179.91z"/>
	<path d="M560.15,186.7l-0.17,0.05c-0.17,0.05-0.36-0.05-0.41-0.22l-0.39-1.28c-0.05-0.17,0.05-0.36,0.22-0.41l0.17-0.05
		c0.17-0.05,0.36,0.05,0.41,0.22l0.39,1.28C560.42,186.46,560.33,186.65,560.15,186.7z"/>
	<path d="M561.07,181.63L561.07,181.63c-0.06-0.21,0.05-0.42,0.26-0.48l1.15-0.35c0.21-0.06,0.42,0.05,0.48,0.26l0,0
		c0.06,0.21-0.05,0.42-0.26,0.48l-1.15,0.35C561.35,181.95,561.13,181.84,561.07,181.63z"/>
	<path d="M554.47,183.64L554.47,183.64c-0.06-0.21,0.05-0.42,0.26-0.48l1.08-0.33c0.21-0.06,0.42,0.05,0.48,0.26l0,0
		c0.06,0.21-0.05,0.42-0.26,0.48l-1.08,0.33C554.75,183.96,554.53,183.84,554.47,183.64z"/>
	<path d="M560.9,178.38L560.9,178.38c0.18,0.09,0.24,0.32,0.15,0.49l-0.55,1.02c-0.09,0.18-0.32,0.24-0.49,0.15l0,0
		c-0.18-0.09-0.24-0.32-0.15-0.49l0.55-1.02C560.5,178.36,560.72,178.29,560.9,178.38z"/>
	<path d="M557.43,184.73l0.13,0.07c0.17,0.09,0.23,0.3,0.14,0.46l-0.56,1.05c-0.09,0.17-0.3,0.23-0.46,0.14l-0.13-0.07
		c-0.17-0.09-0.23-0.3-0.14-0.46l0.56-1.05C557.05,184.7,557.26,184.64,557.43,184.73z"/>
	<path d="M561.03,183.62L561.03,183.62c-0.11,0.2-0.03,0.44,0.17,0.55l1.02,0.55c0.2,0.11,0.44,0.03,0.55-0.17v0
		c0.11-0.2,0.03-0.44-0.17-0.55l-1.02-0.55C561.38,183.34,561.14,183.42,561.03,183.62z"/>
	<path d="M554.75,180.24l-0.02,0.04c-0.1,0.18-0.03,0.41,0.15,0.51l0.98,0.52c0.18,0.1,0.41,0.03,0.51-0.15l0.02-0.04
		c0.1-0.18,0.03-0.41-0.15-0.51l-0.98-0.52C555.07,179.99,554.85,180.06,554.75,180.24z"/>
	<circle cx="577.11" cy="202.87" r="0.98"/>
	<circle cx="598.37" cy="196.53" r="1.1"/>
	<circle cx="609.82" cy="198.96" r="1.3"/>
	<circle cx="569.47" cy="211.22" r="1.3"/>
	<path class="st0" d="M241.43,190.02c-0.03-0.09-0.05-0.19-0.05-0.29C241.38,189.73,240.84,189.93,241.43,190.02z"/>
	<circle cx="627.72" cy="213.09" r="5.6"/>
	<path d="M367.01,302.4v15.82c0,0.81-0.56,1.38-1.1,1.13l-17.29-7.96c-0.88-0.4-0.88-2.16,0-2.56l17.02-7.84
		C366.31,300.68,367.01,301.39,367.01,302.4z"/>
</g>
</svg>
