<?xml version="1.0" encoding="UTF-8"?>
<svg width="150px" id="Layer_2" data-name="Layer 2" xmlns="http://www.w3.org/2000/svg" viewBox="0 0 150 100">
  <defs>
    <style>
      .cls-1 {
        fill: #ffd115;
      }
    </style>
  </defs>
  <g id="Layer_2-2" data-name="Layer 2">
    <g>
      <rect width="150" height="100"/>
      <path class="cls-1" d="M68.72,68.91v4.26c0,.22-.15,.37-.3,.31l-4.66-2.15c-.24-.11-.24-.58,0-.69l4.59-2.11c.18-.08,.37,.11,.37,.38Z"/>
      <path class="cls-1" d="M21.95,49.43h-3.11c-.56,0-.83-.27-.83-.83v-9.3h-2.69c-.56,0-.83-.27-.83-.83v-2.33c0-.56,.27-.83,.83-.83h10.15c.56,0,.83,.27,.83,.83v2.33c0,.56-.27,.83-.83,.83h-2.69v9.3c0,.56-.27,.83-.83,.83Zm-6.63-13.84c-.41,0-.56,.15-.56,.56v2.33c0,.41,.15,.56,.56,.56h2.96v9.57c0,.41,.15,.56,.56,.56h3.11c.41,0,.56-.15,.56-.56v-9.57h2.96c.41,0,.56-.15,.56-.56v-2.33c0-.41-.15-.56-.56-.56H15.32Zm5.3,12.11h-.46v-10.19h-3.94v-.46h8.34v.46h-3.94v10.19Z"/>
      <path class="cls-1" d="M39.46,49.43h-2.98c-.56,0-.83-.27-.83-.83v-2.94c0-.52-.15-.69-.6-.69h-2.56v3.63c0,.56-.27,.83-.83,.83h-2.96c-.56,0-.83-.27-.83-.83v-12.45c0-.56,.27-.83,.83-.83h6.4c2.64,0,3.92,1.09,3.92,3.34v.88c0,1.04-.26,1.73-.81,2.12,1.28,.3,2.06,1.36,2.06,2.85v4.07c0,.56-.27,.83-.83,.83Zm-7.23-4.73h2.82c.6,0,.86,.3,.86,.96v2.94c0,.41,.15,.56,.56,.56h2.98c.41,0,.56-.15,.56-.56v-4.07c0-1.51-.82-2.5-2.21-2.65l-.51-.06,.47-.2c.69-.3,1-.93,1-2.07v-.88c0-2.1-1.16-3.08-3.65-3.08h-6.4c-.41,0-.56,.15-.56,.56v12.45c0,.41,.15,.56,.56,.56h2.96c.41,0,.56-.15,.56-.56v-3.9Zm5.96,3h-.46v-2.71c0-1.21-.62-1.75-2-1.75h-5.31v4.46h-.46v-10.65h4.52c1.46,0,2.32,.87,2.32,2.32v1.33c0,.83-.1,1.65-.74,2.11,1.41,.1,2.12,.83,2.12,2.18v2.71Zm-7.76-4.9h4.06c1.56,0,1.87-.76,1.87-2.08v-1.35c0-1.2-.66-1.87-1.87-1.87h-4.06v5.29Zm3.38-1.29h-1.58v-2.73h1.58c.66,0,.98,.34,.98,1.04v.65c0,.7-.32,1.04-.98,1.04Zm-1.31-.27h1.31c.51,0,.71-.22,.71-.77v-.65c0-.55-.21-.77-.71-.77h-1.31v2.19Z"/>
      <path class="cls-1" d="M53.28,49.43h-2.9c-.59,0-.88-.27-.88-.83v-2.56h-3.13v2.56c0,.56-.27,.83-.83,.83h-2.83c-.56,0-.83-.27-.83-.83v-5.07c0-.79,.24-1.78,.76-3.12l1.67-4.36c.17-.49,.52-.72,1.11-.72h5.17c.56,0,.92,.24,1.09,.72l1.67,4.36c.52,1.34,.76,2.33,.76,3.12v5.07c0,.56-.27,.83-.83,.83Zm-7.19-3.65h3.67v2.82c0,.41,.17,.56,.62,.56h2.9c.41,0,.56-.15,.56-.56v-5.07c0-.76-.24-1.72-.74-3.03l-1.67-4.36c-.13-.39-.38-.55-.84-.55h-5.17c-.47,0-.72,.16-.85,.54l-1.67,4.37c-.51,1.31-.74,2.27-.74,3.03v5.07c0,.41,.15,.56,.56,.56h2.83c.41,0,.56-.15,.56-.56v-2.82Zm5.98,1.92h-.46v-3.31h-7.23v3.31h-.46v-4.23c0-.7,.11-1.31,.34-1.91l1.23-3.15c.28-.7,.55-1.35,1.53-1.35h1.88c.95,0,1.21,.64,1.51,1.37l1.33,3.13c.23,.61,.34,1.22,.34,1.92v4.23Zm-7.69-3.77h7.23v-.46c0-.63-.1-1.2-.3-1.74l-1.32-3.13c-.28-.66-.47-1.09-1.09-1.09h-1.88c-.66,0-.84,.39-1.11,1.07l-1.23,3.15c-.2,.54-.3,1.11-.3,1.74v.46Zm5.24-1.39h-3.38l.96-3.09c.05-.11,.17-.42,.49-.42h.48c.32,0,.45,.31,.49,.41l.96,3.11Zm-3.02-.27h2.66l-.85-2.75c-.1-.23-.19-.23-.24-.23h-.48s-.14,0-.24,.24l-.85,2.74Z"/>
      <path class="cls-1" d="M63.5,49.43h-6.48c-.56,0-.83-.27-.83-.83v-12.45c0-.56,.27-.83,.83-.83h6.48c3.32,0,4.86,1.29,4.86,4.05v6c0,2.77-1.55,4.05-4.86,4.05Zm-6.48-13.84c-.41,0-.56,.15-.56,.56v12.45c0,.41,.15,.56,.56,.56h6.48c3.13,0,4.59-1.2,4.59-3.79v-6c0-2.58-1.46-3.79-4.59-3.79h-6.48Zm6.05,12.11h-4.78v-10.65h4.78c2.83,0,3.21,1.42,3.21,2.81v5.09c0,1.43-.39,2.75-3.21,2.75Zm-4.33-.46h4.33c2.29,0,2.75-.88,2.75-2.29v-5.09c0-1.41-.47-2.35-2.75-2.35h-4.33v9.73Zm4.23-1.44h-2.42v-6.8h2.42c.69,0,1.04,.36,1.04,1.06v4.67c0,.72-.34,1.08-1.04,1.08Zm-2.15-.27h2.15c.55,0,.77-.23,.77-.81v-4.67c0-.56-.22-.79-.77-.79h-2.15v6.27Z"/>
      <path class="cls-1" d="M79.24,49.43h-8.19c-.56,0-.83-.27-.83-.83v-2.29c0-.56,.27-.83,.83-.83h1.77v-6.19h-1.77c-.56,0-.83-.27-.83-.83v-2.33c0-.56,.27-.83,.83-.83h8.19c.56,0,.83,.27,.83,.83v2.33c0,.56-.27,.83-.83,.83h-1.73v6.19h1.73c.56,0,.83,.27,.83,.83v2.29c0,.56-.27,.83-.83,.83Zm-8.19-3.67c-.41,0-.56,.15-.56,.56v2.29c0,.41,.15,.56,.56,.56h8.19c.41,0,.56-.15,.56-.56v-2.29c0-.41-.15-.56-.56-.56h-2v-6.73h2c.41,0,.56-.15,.56-.56v-2.33c0-.41-.15-.56-.56-.56h-8.19c-.41,0-.56,.15-.56,.56v2.33c0,.41,.15,.56,.56,.56h2.04v6.73h-2.04Zm7.28,1.94h-6.38v-.46h2.98v-9.73h-2.98v-.46h6.38v.46h-2.94v9.73h2.94v.46Z"/>
      <path class="cls-1" d="M93.43,49.43h-2.88c-.56,0-.83-.27-.83-.83v-2.32l-3.02-3.66v5.97c0,.56-.27,.83-.83,.83h-2.88c-.56,0-.83-.27-.83-.83v-12.45c0-.56,.27-.83,.83-.83h2c.54,0,.89,.16,1.24,.57l3.49,4v-3.74c0-.56,.27-.83,.83-.83h2.88c.56,0,.83,.27,.83,.83v12.45c0,.56-.27,.83-.83,.83Zm-7-7.54l3.55,4.3v2.41c0,.41,.15,.56,.56,.56h2.88c.41,0,.56-.15,.56-.56v-12.45c0-.41-.15-.56-.56-.56h-2.88c-.41,0-.56,.15-.56,.56v4.45l-3.96-4.53c-.3-.35-.57-.47-1.03-.47h-2c-.41,0-.56,.15-.56,.56v12.45c0,.41,.15,.56,.56,.56h2.88c.41,0,.56-.15,.56-.56v-6.71Zm5.8,5.81h-.46v-2.06l-7.13-8v10.06h-.46v-10.3c0-.24,.19-.36,.36-.36s.24,.07,.38,.21l6.85,7.7v-7.89h.46v10.65Z"/>
      <path class="cls-1" d="M107.34,49.43h-6.05c-3.32,0-4.86-1.29-4.86-4.05v-6c0-2.77,1.54-4.05,4.86-4.05h4.8c.56,0,.83,.27,.83,.83v2.33c0,.56-.27,.83-.83,.83h-4c-.73,0-1.04,.25-1.04,.83v4.59c0,.57,.22,.81,.75,.81h1.73v-2.86c0-.56,.27-.83,.83-.83h2.98c.56,0,.83,.27,.83,.83v5.94c0,.56-.27,.83-.83,.83Zm-6.05-13.84c-3.13,0-4.59,1.2-4.59,3.79v6c0,2.58,1.46,3.79,4.59,3.79h6.05c.41,0,.56-.15,.56-.56v-5.94c0-.41-.15-.56-.56-.56h-2.98c-.41,0-.56,.15-.56,.56v3.13h-2c-.68,0-1.02-.36-1.02-1.08v-4.59c0-.74,.43-1.09,1.31-1.09h4c.41,0,.56-.15,.56-.56v-2.33c0-.41-.15-.56-.56-.56h-4.8Zm4.78,12.11h-3.96c-2.72,0-3.59-.63-3.59-2.61v-5.38c0-2.01,.78-2.65,3.21-2.65h3.46v.46h-3.46c-2.13,0-2.75,.49-2.75,2.19v5.38c0,1.84,.97,2.15,3.13,2.15h3.5v-3.67h.46v4.13Z"/>
      <path class="cls-1" d="M74.85,68.23h-3.11c-.56,0-.83-.27-.83-.83v-9.3h-2.69c-.56,0-.83-.27-.83-.83v-2.33c0-.56,.27-.83,.83-.83h10.15c.56,0,.83,.27,.83,.83v2.33c0,.56-.27,.83-.83,.83h-2.69v9.3c0,.56-.27,.83-.83,.83Zm-6.63-13.84c-.41,0-.56,.15-.56,.56v2.33c0,.41,.15,.56,.56,.56h2.96v9.57c0,.41,.15,.56,.56,.56h3.11c.41,0,.56-.15,.56-.56v-9.57h2.96c.41,0,.56-.15,.56-.56v-2.33c0-.41-.15-.56-.56-.56h-10.15Zm5.3,12.11h-.46v-10.19h-3.94v-.46h8.34v.46h-3.94v10.19Z"/>
      <path class="cls-1" d="M91.13,68.23h-2.9c-.59,0-.88-.27-.88-.83v-2.56h-3.13v2.56c0,.56-.27,.83-.83,.83h-2.83c-.56,0-.83-.27-.83-.83v-5.07c0-.79,.24-1.78,.76-3.12l1.67-4.36c.17-.49,.52-.72,1.11-.72h5.17c.56,0,.92,.24,1.09,.72l1.67,4.36c.52,1.34,.76,2.33,.76,3.12v5.07c0,.56-.27,.83-.83,.83Zm-7.19-3.65h3.67v2.82c0,.41,.17,.56,.62,.56h2.9c.41,0,.56-.15,.56-.56v-5.07c0-.76-.24-1.72-.74-3.03l-1.67-4.36c-.13-.39-.38-.55-.84-.55h-5.17c-.47,0-.72,.16-.85,.54l-1.67,4.37c-.51,1.31-.74,2.27-.74,3.03v5.07c0,.41,.15,.56,.56,.56h2.83c.41,0,.56-.15,.56-.56v-2.82Zm5.98,1.92h-.46v-3.31h-7.23v3.31h-.46v-4.23c0-.7,.11-1.31,.34-1.91l1.23-3.15c.28-.7,.55-1.35,1.53-1.35h1.88c.95,0,1.21,.64,1.51,1.37l1.33,3.13c.23,.61,.34,1.22,.34,1.92v4.23Zm-7.69-3.77h7.23v-.46c0-.63-.1-1.2-.3-1.74l-1.32-3.13c-.28-.66-.47-1.09-1.09-1.09h-1.88c-.67,0-.84,.39-1.11,1.07l-1.23,3.15c-.2,.54-.3,1.11-.3,1.74v.46Zm5.24-1.39h-3.38l.96-3.09c.05-.11,.17-.42,.49-.42h.48c.32,0,.45,.31,.49,.41l.96,3.11Zm-3.02-.27h2.66l-.85-2.75c-.1-.23-.19-.23-.24-.23h-.48s-.14,0-.24,.24l-.85,2.74Z"/>
      <path class="cls-1" d="M97.85,68.23h-2.98c-.56,0-.83-.27-.83-.83v-12.45c0-.56,.27-.83,.83-.83h5.88c3.19,0,4.67,1.23,4.67,3.88v2.46c0,2.65-1.48,3.88-4.67,3.88h-2.08v3.06c0,.56-.27,.83-.83,.83Zm-2.98-13.84c-.41,0-.56,.15-.56,.56v12.45c0,.41,.15,.56,.56,.56h2.98c.41,0,.56-.15,.56-.56v-3.32h2.34c3.04,0,4.4-1.11,4.4-3.61v-2.46c0-2.5-1.36-3.61-4.4-3.61h-5.88Zm1.79,12.11h-.46v-10.65h4.29c2.65,0,3.02,1.32,3.02,2.75v1.42c0,1.4-.37,2.69-3.02,2.69h-3.83v3.79Zm0-4.25h3.83c2.13,0,2.56-.85,2.56-2.23v-1.42c0-1.37-.43-2.29-2.56-2.29h-3.83v5.94Zm3.58-1.37h-1.86v-3.17h1.86c.7,0,1.04,.35,1.04,1.08v1.02c0,.72-.34,1.08-1.04,1.08Zm-1.6-.27h1.6c.55,0,.77-.23,.77-.81v-1.02c0-.57-.22-.81-.77-.81h-1.6v2.64Z"/>
      <path class="cls-1" d="M116.9,68.23h-8.92c-.56,0-.83-.27-.83-.83v-12.45c0-.56,.27-.83,.83-.83h8.92c.56,0,.83,.27,.83,.83v2.25c0,.56-.27,.83-.83,.83h-5.17v1.21h3.61c.56,0,.83,.27,.83,.83v2.06c0,.56-.27,.83-.83,.83h-3.61v1.39h5.17c.56,0,.83,.27,.83,.83v2.25c0,.56-.27,.83-.83,.83Zm-8.92-13.84c-.41,0-.56,.15-.56,.56v12.45c0,.41,.15,.56,.56,.56h8.92c.41,0,.56-.15,.56-.56v-2.25c0-.41-.15-.56-.56-.56h-5.44v-1.92h3.88c.41,0,.56-.15,.56-.56v-2.06c0-.41-.15-.56-.56-.56h-3.88v-1.75h5.44c.41,0,.56-.15,.56-.56v-2.25c0-.41-.15-.56-.56-.56h-8.92Zm8.01,12.11h-6.74v-10.65h6.74v.46h-6.29v4.56h4.73v.46h-4.73v4.71h6.29v.46Z"/>
      <path class="cls-1" d="M126.28,68.23h-6.07c-.56,0-.83-.27-.83-.83v-2.25c0-.56,.27-.83,.83-.83h5.17c.27,0,.37-.22,.37-.42,0-.4-.15-.49-.38-.52l-2.89-.4c-2.14-.32-3.09-1.34-3.09-3.32v-2.02c0-2.23,1.5-3.52,4.11-3.52h5.38c.56,0,.83,.27,.83,.83v2.29c0,.56-.27,.83-.83,.83h-4.48c-.35,0-.39,.31-.39,.44,0,.28,.14,.45,.4,.48l2.87,.38c2.15,.32,3.11,1.35,3.11,3.32v2.02c0,2.23-1.5,3.52-4.11,3.52Zm-6.07-3.63c-.41,0-.56,.15-.56,.56v2.25c0,.41,.15,.56,.56,.56h6.07c2.44,0,3.84-1.18,3.84-3.25v-2.02c0-1.84-.86-2.76-2.88-3.06l-2.86-.38c-.39-.05-.63-.33-.63-.75s.26-.71,.65-.71h4.48c.41,0,.56-.15,.56-.56v-2.29c0-.41-.15-.56-.56-.56h-5.38c-2.48,0-3.84,1.15-3.84,3.25v2.02c0,1.84,.86,2.76,2.86,3.06l2.88,.4c.41,.05,.61,.31,.61,.79,0,.41-.25,.69-.63,.69h-5.17Zm5.82,1.9h-4.92v-.46h4.92c1.08,0,1.81-.65,1.81-1.62v-1.11c0-1.11-.39-1.41-1.07-1.56l-4.05-.83c-.64-.13-1.24-.41-1.24-1.61v-1.58c0-1.11,.86-1.88,2.09-1.88h4.4v.46h-4.4c-.98,0-1.63,.57-1.63,1.42v1.58c0,.83,.32,1.05,.87,1.16l4.06,.83c.71,.14,1.43,.49,1.43,2.01v1.11c0,1.24-.91,2.07-2.27,2.07Z"/>
      <path class="cls-1" d="M60.66,75.08h-.19s-28.54-3.71-28.54-3.71c-.81-.1-1.38-.85-1.28-1.66l2.24-17.26c.05-.39,.25-.74,.56-.98,.31-.24,.7-.35,1.09-.29l28.54,3.7c.39,.05,.74,.25,.98,.56,.24,.31,.35,.7,.29,1.09l-2.23,17.26c-.1,.74-.73,1.29-1.46,1.29Zm-.05-1.07c.22,.03,.43-.13,.46-.35l2.23-17.26c.01-.11-.01-.22-.08-.3s-.16-.14-.27-.16l-28.54-3.7c-.11-.01-.22,.01-.3,.08-.09,.07-.14,.16-.16,.27l-2.24,17.26c-.01,.11,.01,.22,.08,.3,.07,.09,.16,.14,.27,.16l28.54,3.7Z"/>
      <path class="cls-1" d="M53.98,68.63l.31-.18c-.19-.34-.54-.54-.93-.59l-12.79-1.66h-.16c-.29,0-.58,.09-.79,.3l-4.66,4.83,22.59,2.93-3.25-5.82-.31,.18-.31,.18,2.55,4.57-19.76-2.56,3.67-3.8s.15-.1,.27-.09h.07s12.79,1.66,12.79,1.66c.19,.02,.35,.13,.39,.23l.31-.18Zm-13.47,2.07l.05-.36c-.1-.01-.16-.09-.16-.19v-.02s-.36-.05-.36-.05l.35,.07v-.04s-.35-.07-.35-.07l.35,.07c.02-.09,.1-.15,.18-.15h.03c.09,.01,.16,.09,.16,.19h0s0,0,0,0v.04s.36,.02,.36,.02l-.36-.05c-.01,.09-.09,.16-.19,.16h-.02s-.05,.36-.05,.36l-.05,.36h.12c.45,0,.84-.33,.9-.78h0s0-.06,0-.06h0s0,0,0,0v-.05c0-.45-.33-.84-.79-.9h-.12c-.43,0-.8,.29-.89,.72h0s0,.04,0,.04h0s0,.02,0,.02v.12c0,.45,.33,.84,.78,.9l.05-.36Zm3.08-1.59l.05-.36v.02s.02,0,.02,0l-.02-.02v.02s.02,0,.02,0h0s0,0,0,0h0s-.36-.04-.36-.04l.35,.07v-.04s-.35-.07-.35-.07l.35,.09h-.02s0,.02,0,.02l.02-.02h-.02s0,.02,0,.02v0s0,0,0,0v0s0-.02,0-.02h-.02l.02,.02v-.02s-.02,0-.02,0h0s.36,0,.36,0l-.36-.02v.04s.36,.02,.36,.02l-.36-.05h.02s0-.02,0-.02l-.02,.02h.02s0-.02,0-.02v0s0,0,0,0v0s-.04,.36-.04,.36l-.05,.36h.09c.35,0,.64-.25,.69-.6h0s0-.06,0-.06h0v-.02h0c0-.35-.25-.65-.61-.69h-.09c-.32,0-.59,.21-.67,.52h0s0,.06,0,.06h0s0,.02,0,.02v.09c0,.35,.25,.64,.6,.69l.05-.36Zm6.56,.85l.05-.36v.02s.02,0,.02,0l-.02-.02v.02s.02,0,.02,0h0s0,0,0,0h0s-.36-.04-.36-.04l.35,.07v-.04s-.35-.07-.35-.07l.35,.09h-.02s0,.02,0,.02l.02-.02h-.02s0,.02,0,.02v0s0,0,0,0v0s0-.02,0-.02h-.02l.02,.02v-.02s-.02,0-.02,0h0s.36,0,.36,0l-.36-.02v.04s.36,.02,.36,.02l-.36-.05h.02s0-.02,0-.02l-.02,.02h.02s0-.02,0-.02v0s0,0,0,0v0s-.04,.36-.04,.36l-.05,.36h.09c.35,0,.64-.25,.69-.6h0s0-.06,0-.06h0v-.02h0c0-.35-.26-.65-.61-.69h-.09c-.32,0-.59,.21-.67,.52h0s0,.06,0,.06h0s0,.02,0,.02v.09c0,.35,.25,.64,.6,.69l.05-.36Zm2.77,2.35l.05-.36c-.1-.01-.16-.09-.16-.19v-.02s-.36-.05-.36-.05l.35,.07v-.04s0,0,0,0c.02-.09,.09-.15,.18-.15h.03c.09,.01,.16,.09,.16,.19h0s.36,.03,.36,.03l-.36-.02v.04s.36,.02,.36,.02l-.36-.05c-.01,.09-.09,.16-.19,.16h-.02s-.05,.36-.05,.36l-.05,.36h.12c.45,0,.84-.33,.9-.78h0s0-.06,0-.06h0s0,0,0,0v-.05c0-.45-.33-.84-.79-.9h-.12c-.43,0-.8,.29-.89,.72v.04s0,.01,0,.01h0s0,.13,0,.13c0,.45,.33,.84,.79,.9l.05-.36Z"/>
      <path class="cls-1" d="M50.28,63.95h-.11s0,0,0,0l-5.38-.7c-.46-.06-.78-.48-.72-.94l.23-1.78c.03-.22,.14-.42,.32-.56,.18-.14,.4-.2,.62-.17l5.38,.7c.22,.03,.42,.14,.56,.32,.14,.18,.2,.4,.17,.62l-.23,1.78c-.05,.42-.42,.73-.83,.73Zm0-.8l.04-.03,.23-1.78-.03-.04-5.38-.7-.04,.03-.23,1.78,.03,.04,5.38,.7Z"/>
      <path class="cls-1" d="M57.42,67.29h-.18s-20.07-2.61-20.07-2.61c-.78-.1-1.33-.82-1.23-1.6l.97-7.49c.1-.78,.82-1.33,1.6-1.23l20.07,2.6c.38,.05,.71,.24,.95,.54,.23,.3,.33,.68,.28,1.05l-.97,7.49c-.09,.72-.71,1.24-1.41,1.24Zm-19.1-12.14c-.14,0-.27,.04-.38,.13-.13,.1-.22,.25-.24,.41l-.97,7.49c-.04,.34,.2,.66,.54,.7l20.07,2.6c.34,.04,.66-.2,.7-.54l.97-7.49c.02-.17-.02-.33-.13-.46-.1-.13-.25-.22-.41-.24l-20.07-2.6h-.08Z"/>
      <path class="cls-1" d="M54.15,64.11h-.18c-.76-.11-1.3-.81-1.21-1.58,.1-.76,.8-1.3,1.56-1.21,.76,.1,1.3,.8,1.21,1.56-.05,.37-.24,.7-.53,.93-.25,.19-.54,.29-.85,.29Zm0-2.53c-.56,0-1.05,.42-1.12,.98-.08,.62,.36,1.18,.97,1.26,.3,.04,.6-.04,.83-.23,.24-.18,.39-.45,.43-.75,.08-.62-.36-1.18-.97-1.26h-.15Z"/>
      <path class="cls-1" d="M54.25,61.97h0c-.07,0-.12-.07-.11-.14l.05-.36c0-.07,.07-.12,.14-.11s.12,.07,.11,.14l-.05,.36c0,.07-.07,.12-.14,.11Z"/>
      <path class="cls-1" d="M53.98,64.06h0c-.07,0-.12-.07-.11-.14l.04-.34c0-.07,.07-.12,.14-.11,.07,0,.12,.07,.11,.14l-.04,.34c0,.07-.07,.12-.14,.11Z"/>
      <polygon class="cls-1" points="54.87 62.81 54.87 62.81 55 62.71 55.36 62.75 55.46 62.88 55.33 62.98 54.97 62.94 54.87 62.81"/>
      <polygon class="cls-1" points="52.85 62.54 52.85 62.54 52.98 62.44 53.31 62.49 53.41 62.62 53.28 62.71 52.95 62.67 52.85 62.54"/>
      <polygon class="cls-1" points="55.23 61.91 55.23 61.91 55.21 62.06 54.93 62.27 54.78 62.25 54.8 62.1 55.07 61.89 55.23 61.91"/>
      <polygon class="cls-1" points="53.53 63.22 53.53 63.22 53.5 63.39 53.26 63.58 53.09 63.56 53.11 63.38 53.35 63.19 53.53 63.22"/>
      <polygon class="cls-1" points="54.62 63.34 54.62 63.34 54.6 63.51 54.81 63.78 54.98 63.8 55 63.63 54.79 63.36 54.62 63.34"/>
      <polygon class="cls-1" points="53.33 61.66 53.33 61.66 53.31 61.83 53.5 62.08 53.67 62.1 53.67 62.1 53.69 61.93 53.5 61.68 53.33 61.66"/>
      <path class="cls-1" d="M41.21,62.43h-.18c-.37-.06-.7-.25-.93-.54-.23-.3-.33-.66-.28-1.03,.05-.37,.24-.7,.53-.93,.3-.23,.66-.33,1.03-.28,.76,.1,1.3,.8,1.21,1.56-.05,.37-.24,.7-.53,.93-.25,.19-.54,.29-.85,.29Zm0-2.53c-.25,0-.49,.08-.69,.23-.24,.18-.39,.45-.43,.75-.04,.3,.04,.6,.23,.83,.18,.24,.45,.39,.75,.43,.3,.04,.6-.04,.83-.23,.24-.18,.39-.45,.43-.75,.08-.62-.36-1.18-.97-1.26h-.15Z"/>
      <path class="cls-1" d="M41.31,60.29h0c-.07,0-.12-.07-.11-.14l.05-.36c0-.07,.07-.12,.14-.11,.07,0,.12,.07,.11,.14l-.05,.36c0,.07-.07,.12-.14,.11Z"/>
      <path class="cls-1" d="M41.04,62.39h0c-.07,0-.12-.07-.11-.14l.04-.34c0-.07,.07-.12,.14-.11,.07,0,.12,.07,.11,.14l-.04,.34c0,.07-.07,.12-.14,.11Z"/>
      <polygon class="cls-1" points="41.93 61.13 41.93 61.13 42.06 61.03 42.41 61.08 42.51 61.21 42.38 61.31 42.03 61.26 41.93 61.13"/>
      <polygon class="cls-1" points="39.9 60.87 39.9 60.87 40.03 60.77 40.36 60.81 40.46 60.94 40.33 61.04 40 61 39.9 60.87"/>
      <polygon class="cls-1" points="42.28 60.23 42.28 60.23 42.26 60.38 41.99 60.59 41.84 60.57 41.86 60.42 42.13 60.21 42.28 60.23"/>
      <polygon class="cls-1" points="40.58 61.54 40.58 61.54 40.56 61.71 40.31 61.9 40.14 61.88 40.16 61.71 40.41 61.52 40.58 61.54"/>
      <polygon class="cls-1" points="41.68 61.66 41.68 61.66 41.65 61.83 41.86 62.1 42.03 62.13 42.06 61.96 41.85 61.68 41.68 61.66"/>
      <polygon class="cls-1" points="40.38 59.99 40.38 59.99 40.36 60.15 40.56 60.4 40.72 60.42 40.74 60.26 40.55 60.01 40.38 59.99"/>
      <path class="cls-1" d="M43.96,68.87c-.02,.16-.17,.27-.33,.25-.16-.02-.27-.17-.25-.33s.17-.27,.33-.25c.16,.02,.27,.17,.25,.33Z"/>
      <path class="cls-1" d="M50.52,69.75c-.02,.18-.19,.3-.36,.28-.18-.02-.3-.19-.28-.36,.02-.18,.19-.3,.36-.28s.3,.19,.28,.36Z"/>
      <path class="cls-1" d="M53.38,71.81c-.03,.21-.22,.36-.43,.33-.21-.03-.36-.22-.33-.43,.03-.21,.22-.36,.43-.33,.21,.03,.36,.22,.33,.43Z"/>
      <path class="cls-1" d="M40.97,70.21c-.03,.21-.22,.36-.43,.33-.21-.03-.36-.22-.33-.43,.03-.21,.22-.36,.43-.33,.21,.03,.36,.22,.33,.43Z"/>
      <path class="cls-1" d="M115.52,49.14c-.24,0-.48-.06-.7-.18-.35-.19-.6-.5-.72-.88l-4.26-14.17c-.23-.78,.21-1.61,.99-1.84l23.59-7.09c.78-.23,1.61,.21,1.84,.99l4.26,14.17c.23,.78-.21,1.61-.99,1.84l-23.59,7.09c-.14,.04-.28,.06-.43,.06Zm19.33-23.15l-.12,.02-23.59,7.09c-.22,.06-.34,.29-.27,.51l4.26,14.17c.03,.1,.1,.19,.2,.24,.1,.05,.21,.06,.31,.03l23.59-7.09c.22-.06,.34-.29,.27-.51l-4.26-14.17c-.05-.18-.22-.29-.39-.29Z"/>
      <path class="cls-1" d="M132.24,39.09l.21-.29c-.19-.14-.41-.2-.63-.2-.12,0-.24,.02-.36,.05l-10.68,3.21c-.3,.09-.56,.3-.68,.61l-2.01,5.55,19.05-5.72-4.7-3.5-.21,.29-.21,.29,3.55,2.65-16.31,4.9,1.52-4.21s.09-.13,.21-.16l10.68-3.21,.15-.02c.09,0,.16,.03,.2,.05l.21-.29Zm-9.9,6.39l-.1-.34h-.03s-.11-.08-.11-.08l-.34,.1,.35-.08v-.03s-.36,.08-.36,.08l.35-.08v-.02s.08-.11,.08-.11h.03s.11,.07,.11,.07h0s.01,.03,.01,.03l.34-.12-.34,.1v.03s-.08,.11-.08,.11l.1,.34,.1,.34c.36-.11,.59-.44,.59-.8,0-.08-.01-.16-.04-.24h0s-.02-.05-.02-.05h0c-.13-.33-.44-.54-.78-.54-.08,0-.16,.01-.24,.04-.36,.11-.59,.44-.59,.8l.02,.18v.04s.01,.01,.01,.01h0c.11,.37,.44,.6,.8,.6,.08,0,.16-.01,.24-.04l-.1-.34Zm1.87-2.34l-.1-.34,.02,.07v-.07h-.02s.02,.07,.02,.07v0l.07-.02-.07-.05v.07l.07-.02-.34,.1,.35-.08v-.03s-.36,.08-.36,.08l.35-.06h-.07s.07,.01,.07,.01h0s-.07,0-.07,0h0l.02,.07,.05-.07h-.07l.02,.07-.02-.07v.07h.02s-.02-.07-.02-.07v0l-.06,.03,.06,.04v-.07l-.06,.03,.33-.14-.34,.12v.03s.35-.12,.35-.12l-.34,.1,.07-.02h-.07v.02s.07-.02,.07-.02h0l-.02-.07-.05,.07h.07l-.02-.07,.1,.34,.1,.34c.28-.09,.46-.34,.46-.62l-.03-.19h0s-.02-.05-.02-.05h0s0-.02,0-.02c-.11-.24-.34-.39-.6-.39l-.19,.03c-.28,.09-.46,.34-.46,.62v.11s.01,.01,.01,.01v.04s.01,.01,.01,.01h0c.09,.29,.34,.47,.62,.47l.19-.03-.1-.34Zm5.48-1.65l-.1-.34,.02,.07v-.07h-.02s.02,.07,.02,.07v0l.07-.02-.07-.05v.07l.07-.02-.34,.1,.35-.08v-.03s-.36,.08-.36,.08l.35-.06h-.07s.07,.01,.07,.01h0s-.07,0-.07,0h0l.02,.07,.05-.07h-.07l.02,.07-.02-.06v.07h.02s-.02-.07-.02-.07v0l-.06,.03,.06,.04v-.07l-.06,.03,.33-.14-.34,.12v.03s.35-.12,.35-.12l-.34,.1,.07-.02h-.07v.02s.07-.02,.07-.02h0l-.02-.07-.05,.07h.07l-.02-.07,.1,.34,.1,.34c.28-.09,.46-.34,.46-.62l-.03-.19h0s-.02-.05-.02-.05h0s0-.02,0-.02c-.11-.24-.34-.39-.6-.39l-.19,.03c-.28,.09-.46,.34-.46,.62v.11s.01,.01,.01,.01v.04s.01,.01,.01,.01h0c.09,.29,.34,.47,.62,.47l.19-.03-.1-.34Zm3.01,.88l-.1-.34h-.03s-.11-.08-.11-.08l-.34,.1,.35-.08v-.03s0,0,0,0v-.02s.08-.11,.08-.11h.03s.11,.07,.11,.07h0s.01,.03,.01,.03l.34-.12-.34,.1v.03s-.08,.11-.08,.11l.1,.34,.1,.34c.36-.11,.59-.44,.59-.8,0-.08-.01-.16-.04-.24h0s-.02-.05-.02-.05h0c-.13-.33-.44-.54-.78-.54-.08,0-.16,.01-.24,.04-.36,.11-.59,.44-.59,.8l.02,.18h0s0,.04,0,.04h0s0,.02,0,.02c.11,.36,.44,.59,.8,.59,.08,0,.16-.01,.24-.04l-.1-.34Z"/>
      <path class="cls-1" d="M122.92,38.16c-.36,0-.69-.23-.8-.6l-.41-1.37c-.06-.21-.04-.44,.06-.64,.11-.2,.28-.34,.5-.41l4.38-1.32c.21-.06,.44-.04,.64,.06,.2,.11,.34,.28,.41,.5l.41,1.37c.06,.21,.04,.44-.06,.64-.11,.2-.28,.34-.5,.41l-4.38,1.32c-.08,.02-.16,.04-.24,.04Zm3.96-3.56h0s-4.38,1.32-4.38,1.32l-.02,.05,.41,1.37,.05,.02,4.38-1.32,.02-.05-.41-1.37-.04-.03Z"/>
      <path class="cls-1" d="M117.19,42.1c-.23,0-.46-.06-.67-.17-.34-.18-.58-.48-.69-.85l-1.8-5.99c-.11-.36-.07-.75,.11-1.09,.18-.34,.48-.58,.85-.69l16.49-4.96c.75-.23,1.55,.2,1.78,.96l1.8,5.99c.11,.37,.07,.75-.11,1.09-.18,.34-.48,.58-.85,.69l-16.49,4.96c-.14,.04-.27,.06-.41,.06Zm14.69-13l-.18,.03-16.49,4.96c-.16,.05-.29,.16-.37,.3-.08,.15-.1,.32-.05,.48l1.8,5.99c.05,.16,.16,.29,.3,.37,.15,.08,.32,.1,.48,.05l16.49-4.96c.33-.1,.52-.45,.42-.78l-1.8-5.99c-.08-.27-.33-.45-.6-.45Z"/>
      <path class="cls-1" d="M130.28,35.59c-.2,0-.4-.05-.58-.15-.29-.16-.5-.41-.59-.73-.09-.31-.06-.64,.09-.93,.16-.29,.41-.5,.73-.59,.65-.19,1.33,.17,1.53,.82,.19,.65-.17,1.33-.82,1.53-.12,.04-.24,.05-.35,.05Zm0-2.18c-.09,0-.18,.01-.28,.04-.25,.07-.45,.24-.57,.46-.12,.23-.15,.48-.07,.73,.07,.25,.24,.45,.46,.57,.23,.12,.48,.15,.73,.07,.51-.15,.79-.69,.64-1.19-.12-.41-.51-.68-.92-.68Z"/>
      <polygon class="cls-1" points="130.1 33.73 130.1 33.73 129.97 33.66 129.88 33.37 129.95 33.23 130.09 33.3 130.18 33.6 130.1 33.73"/>
      <polygon class="cls-1" points="130.63 35.49 130.63 35.49 130.5 35.41 130.41 35.13 130.48 34.99 130.62 35.07 130.7 35.35 130.63 35.49"/>
      <polygon class="cls-1" points="130.89 34.18 130.89 34.18 130.96 34.05 131.25 33.97 131.38 34.03 131.31 34.16 131.01 34.25 130.89 34.18"/>
      <polygon class="cls-1" points="129.2 34.69 129.2 34.69 129.26 34.56 129.54 34.48 129.66 34.55 129.6 34.67 129.32 34.75 129.2 34.69"/>
      <polygon class="cls-1" points="130.85 33.35 130.85 33.35 130.89 33.47 130.75 33.73 130.62 33.77 130.58 33.64 130.72 33.38 130.85 33.35"/>
      <polygon class="cls-1" points="129.97 34.98 129.97 34.98 130.01 35.12 129.89 35.36 129.74 35.4 129.7 35.26 129.83 35.02 129.97 34.98"/>
      <polygon class="cls-1" points="130.88 34.69 130.88 34.69 130.92 34.83 131.18 34.97 131.32 34.93 131.28 34.79 131.02 34.65 130.88 34.69"/>
      <polygon class="cls-1" points="129.27 33.82 129.27 33.82 129.31 33.96 129.55 34.09 129.69 34.05 129.65 33.91 129.41 33.78 129.27 33.82"/>
      <path class="cls-1" d="M119.48,38.84c-.53,0-1.02-.34-1.17-.87-.09-.31-.06-.64,.09-.93,.16-.29,.41-.5,.73-.59,.65-.19,1.33,.17,1.53,.82,.19,.65-.17,1.33-.82,1.53-.12,.04-.24,.05-.35,.05Zm0-2.18c-.09,0-.18,.01-.28,.04-.25,.07-.45,.24-.57,.46-.12,.23-.15,.48-.07,.73,.15,.51,.69,.79,1.19,.64,.51-.15,.79-.69,.64-1.19-.12-.41-.51-.68-.92-.68Z"/>
      <polygon class="cls-1" points="119.29 36.99 119.29 36.99 119.16 36.91 119.07 36.62 119.14 36.48 119.28 36.55 119.36 36.85 119.29 36.99"/>
      <polygon class="cls-1" points="119.82 38.74 119.82 38.74 119.68 38.66 119.6 38.38 119.67 38.24 119.81 38.32 119.89 38.6 119.82 38.74"/>
      <polygon class="cls-1" points="120.08 37.43 120.08 37.43 120.15 37.31 120.44 37.22 120.56 37.28 120.5 37.41 120.2 37.5 120.08 37.43"/>
      <polygon class="cls-1" points="118.39 37.94 118.39 37.94 118.45 37.81 118.73 37.73 118.85 37.8 118.79 37.92 118.51 38.01 118.39 37.94"/>
      <polygon class="cls-1" points="120.04 36.6 120.04 36.6 120.08 36.72 119.94 36.98 119.81 37.02 119.77 36.9 119.91 36.63 120.04 36.6"/>
      <polygon class="cls-1" points="119.16 38.23 119.16 38.23 119.2 38.37 119.08 38.61 118.93 38.65 118.89 38.51 119.02 38.27 119.16 38.23"/>
      <polygon class="cls-1" points="120.07 37.94 120.07 37.94 120.11 38.08 120.37 38.22 120.51 38.18 120.47 38.04 120.21 37.9 120.07 37.94"/>
      <polygon class="cls-1" points="118.46 37.07 118.46 37.07 118.5 37.21 118.74 37.34 118.88 37.3 118.83 37.16 118.6 37.03 118.46 37.07"/>
      <path class="cls-1" d="M124.42,42.82c.04,.13-.04,.27-.17,.31-.13,.04-.27-.04-.31-.17-.04-.13,.04-.27,.17-.31s.27,.04,.31,.17Z"/>
      <path class="cls-1" d="M129.91,41.2c.04,.15-.04,.31-.19,.35-.15,.04-.31-.04-.35-.19-.04-.15,.04-.31,.19-.35,.15-.04,.31,.04,.35,.19Z"/>
      <path class="cls-1" d="M132.89,41.82c.05,.18-.05,.36-.22,.42-.18,.05-.36-.05-.42-.22-.05-.18,.05-.36,.22-.42,.18-.05,.36,.05,.42,.22Z"/>
      <path class="cls-1" d="M122.53,44.93c.05,.18-.05,.36-.22,.42-.18,.05-.36-.05-.42-.22-.05-.18,.05-.36,.22-.42,.18-.05,.36,.05,.42,.22Z"/>
      <path class="cls-1" d="M12.81,54.33c-.47,0-1.3-.1-2.02-.71-.86-.72-1.31-1.89-1.34-3.49-.07-3.86,0-14.49,0-15.19-.03-.3-.11-1.85,.87-2.99,.65-.75,1.6-1.15,2.83-1.17,3.42-.07,17.57,0,17.71,0l46.21-.03h25.53v1.34h-25.53l-46.21,.03c-.15,0-14.27-.07-17.68,0-.83,.02-1.45,.26-1.84,.71-.67,.78-.55,1.99-.55,2v.04s0,.04,0,.04c0,.11-.07,11.24,0,15.19,.02,1.19,.3,2.02,.85,2.48,.59,.5,1.32,.4,1.36,.4h.1s16.76,0,16.76,0v1.34H13.13c-.07,0-.18,.02-.32,.02Z"/>
      <path class="cls-1" d="M77.87,71.67h-12.36v-1.34h12.36l21.14-.05c.25,0,24.43,.11,29.56,0,1.67-.04,2.89-.45,3.61-1.22,.74-.79,.71-1.71,.71-1.75v-.04s0-20.62,0-20.62h1.34v20.61c0,.22,0,1.54-1.04,2.68-.98,1.06-2.52,1.63-4.58,1.67-5.15,.11-29.35,0-29.59,0l-21.13,.05Z"/>
      <path class="cls-1" d="M30,53.67c0,.78-.64,1.42-1.42,1.42s-1.42-.64-1.42-1.42,.64-1.42,1.42-1.42,1.42,.64,1.42,1.42Z"/>
      <path class="cls-1" d="M134.97,47.55c0,.78-.64,1.42-1.42,1.42s-1.42-.64-1.42-1.42,.64-1.42,1.42-1.42,1.42,.64,1.42,1.42Z"/>
      <path class="cls-1" d="M100.24,29.34v4.26c0,.22,.15,.37,.3,.31l4.66-2.15c.24-.11,.24-.58,0-.69l-4.59-2.11c-.18-.08-.37,.11-.37,.38Z"/>
      <path class="cls-1" d="M69.12,68.91v4.26c0,.22-.15,.37-.3,.31l-4.66-2.15c-.24-.11-.24-.58,0-.69l4.59-2.11c.18-.08,.37,.11,.37,.38Z"/>
    </g>
  </g>
</svg>